<?xml version="1.0" encoding="UTF-8"?>
<svg width="1248px" height="604px" viewBox="0 0 1248 604" version="1.1" xmlns="http://www.w3.org/2000/svg" xmlns:xlink="http://www.w3.org/1999/xlink">
    <title>faq copy 5</title>
    <defs>
        <path d="M561.027946,507.5031 C514.64953,608.71764 412.442301,679 293.835855,679 C175.229409,679 73.0221808,608.71764 26.6437647,507.5031 C9.52981152,470.25742 0,204.455094 0,160.816498 C0,-1.46825038 131.551107,0 293.835855,0 C456.120604,0 587.671711,-1.46825038 587.671711,160.816498 C587.671711,204.455094 578.141899,470.25742 561.027946,507.5031 Z" id="path-1"></path>
        <rect id="path-3" x="0" y="0" width="394.337676" height="480" rx="10"></rect>
        <filter x="-13.3%" y="-10.3%" width="126.6%" height="121.9%" filterUnits="objectBoundingBox" id="filter-4">
            <feMorphology radius="3" operator="dilate" in="SourceAlpha" result="shadowSpreadOuter1"></feMorphology>
            <feOffset dx="0" dy="3" in="shadowSpreadOuter1" result="shadowOffsetOuter1"></feOffset>
            <feGaussianBlur stdDeviation="14" in="shadowOffsetOuter1" result="shadowBlurOuter1"></feGaussianBlur>
            <feColorMatrix values="0 0 0 0 0   0 0 0 0 0   0 0 0 0 0  0 0 0 0.0779064685 0" type="matrix" in="shadowBlurOuter1"></feColorMatrix>
        </filter>
        <rect id="path-5" x="17" y="121.794" width="306" height="57" rx="5"></rect>
        <filter x="-1.0%" y="-5.3%" width="102.0%" height="110.5%" filterUnits="objectBoundingBox" id="filter-6">
            <feMorphology radius="1" operator="dilate" in="SourceAlpha" result="shadowSpreadOuter1"></feMorphology>
            <feOffset dx="0" dy="0" in="shadowSpreadOuter1" result="shadowOffsetOuter1"></feOffset>
            <feColorMatrix values="0 0 0 0 0.187070131   0 0 0 0 0.759780109   0 0 0 0 0.459023654  0 0 0 0.31 0" type="matrix" in="shadowOffsetOuter1"></feColorMatrix>
        </filter>
        <path d="M561.027946,507.5031 C514.64953,608.71764 412.442301,679 293.835855,679 C175.229409,679 73.0221808,608.71764 26.6437647,507.5031 C9.52981152,470.25742 0,204.455094 0,160.816498 C0,-1.46825038 131.551107,0 293.835855,0 C456.120604,0 587.671711,-1.46825038 587.671711,160.816498 C587.671711,204.455094 578.141899,470.25742 561.027946,507.5031 Z" id="path-7"></path>
        <rect id="path-9" x="0" y="0" width="394.337676" height="480" rx="10"></rect>
        <filter x="-13.3%" y="-10.3%" width="126.6%" height="121.9%" filterUnits="objectBoundingBox" id="filter-10">
            <feMorphology radius="3" operator="dilate" in="SourceAlpha" result="shadowSpreadOuter1"></feMorphology>
            <feOffset dx="0" dy="3" in="shadowSpreadOuter1" result="shadowOffsetOuter1"></feOffset>
            <feGaussianBlur stdDeviation="14" in="shadowOffsetOuter1" result="shadowBlurOuter1"></feGaussianBlur>
            <feColorMatrix values="0 0 0 0 0   0 0 0 0 0   0 0 0 0 0  0 0 0 0.0779064685 0" type="matrix" in="shadowBlurOuter1"></feColorMatrix>
        </filter>
    </defs>
    <g id="faq-copy-5" stroke="none" stroke-width="1" fill="none" fill-rule="evenodd">
        <g id="67d1bd2ad29c4adc50fb195375f31fcb1674823604794398778c01f6c185d702" transform="translate(15.445753, -75.000000)">
            <path d="M561.027946,506.344362 C514.64953,607.558902 412.442301,677.841262 293.835855,677.841262 C175.229409,677.841262 73.0221808,607.558902 26.6437647,506.344362 C9.52981152,469.098682 0,427.644002 0,384.005407 C0,221.720658 131.551107,90.1695513 293.835855,90.1695513 C456.120604,90.1695513 587.671711,221.720658 587.671711,384.005407 C587.671711,427.644002 578.141899,469.098682 561.027946,506.344362 Z" id="Path" fill="#F9FAFB" fill-rule="nonzero"></path>
            <g id="Clipped" transform="translate(0.436783, 0.000000)">
                <mask id="mask-2" fill="white">
                    <use xlink:href="#path-1"></use>
                </mask>
                <g id="Path"></g>
                <g id="Group" mask="url(#mask-2)">
                    <g transform="translate(96.667017, 245.568917)" id="Group-20">
                        <g id="Rectangle">
                            <use fill="black" fill-opacity="1" filter="url(#filter-4)" xlink:href="#path-3"></use>
                            <use fill="#FFFFFF" fill-rule="evenodd" xlink:href="#path-3"></use>
                        </g>
                        <g id="Group" transform="translate(27.168838, 40.235967)">
                            <path d="M332,42.794 C333.932997,42.794 335.682997,43.5775017 336.949747,44.8442525 C338.216498,46.1110034 339,47.8610034 339,49.794 L339,49.794 L339,189.794 C339,191.726997 338.216498,193.476997 336.949747,194.743747 C335.682997,196.010498 333.932997,196.794 332,196.794 L332,196.794 L8,196.794 C6.06700338,196.794 4.31700338,196.010498 3.05025253,194.743747 C1.78350169,193.476997 1,191.726997 1,189.794 L1,189.794 L1,49.794 C1,47.8610034 1.78350169,46.1110034 3.05025253,44.8442525 C4.31700338,43.5775017 6.06700338,42.794 8,42.794 L8,42.794 Z" id="Rectangle" stroke="#2EC275" stroke-width="2" fill-opacity="0.05" fill="#2EC275"></path>
                            <path d="M2,105.794 L338,105.794 L338,187.794 C338,192.212278 334.418278,195.794 330,195.794 L10,195.794 C5.581722,195.794 2,192.212278 2,187.794 L2,105.794 L2,105.794 Z" id="Rectangle" fill="#FFFFFF"></path>
                            <g id="Yes" transform="translate(156.704000, 68.422000)" fill="#2EC275" fill-rule="nonzero">
                                <polygon id="Path" points="6.016 10.672 6.016 6.24 10.144 0 8 0 5.072 4.56 2.144 0 0 0 4.144 6.24 4.144 10.672"></polygon>
                                <path d="M14.832,10.864 C16.048,10.864 17.184,10.464 17.968,9.728 L17.2,8.624 C16.64,9.184 15.76,9.488 14.992,9.488 C13.536,9.488 12.672,8.512 12.544,7.36 L18.496,7.36 L18.496,6.944 C18.496,4.512 17.024,2.752 14.704,2.752 C12.416,2.752 10.784,4.56 10.784,6.8 C10.784,9.248 12.496,10.864 14.832,10.864 Z M16.88,6.16 L12.528,6.16 C12.592,5.232 13.264,4.128 14.688,4.128 C16.208,4.128 16.832,5.248 16.88,6.16 Z" id="Shape"></path>
                                <path d="M22.816,10.864 C24.896,10.864 26.032,9.824 26.032,8.448 C26.032,5.376 21.36,6.4 21.36,5.04 C21.36,4.496 21.904,4.08 22.784,4.08 C23.76,4.08 24.608,4.496 25.072,5.008 L25.776,3.824 C25.088,3.216 24.096,2.752 22.784,2.752 C20.832,2.752 19.744,3.824 19.744,5.088 C19.744,8.064 24.416,6.976 24.416,8.496 C24.416,9.104 23.888,9.52 22.88,9.52 C21.888,9.52 20.816,9.008 20.272,8.448 L19.504,9.648 C20.304,10.432 21.488,10.864 22.816,10.864 Z" id="Path"></path>
                            </g>
                            <path d="M332,210.794 C334.071068,210.794 335.946068,211.633466 337.303301,212.990699 C338.660534,214.347932 339.5,216.222932 339.5,218.294 L339.5,218.294 L339.5,266.294 C339.5,268.365068 338.660534,270.240068 337.303301,271.597301 C335.946068,272.954534 334.071068,273.794 332,273.794 L332,273.794 L8,273.794 C5.92893219,273.794 4.05393219,272.954534 2.69669914,271.597301 C1.33946609,270.240068 0.5,268.365068 0.5,266.294 L0.5,266.294 L0.5,218.294 C0.5,216.222932 1.33946609,214.347932 2.69669914,212.990699 C4.05393219,211.633466 5.92893219,210.794 8,210.794 L8,210.794 Z" id="Rectangle" stroke="#E2E2E2" fill-opacity="0.1" fill="#FFFFFF"></path>
                            <g id="No" transform="translate(161.008000, 237.422000)" fill="#263E4A" fill-rule="nonzero">
                                <polygon id="Path" points="8.832 10.672 8.832 0 7.504 0 7.504 8.336 1.36 0 0 0 0 10.672 1.328 10.672 1.328 2.16 7.552 10.672"></polygon>
                                <path d="M14.656,10.864 C17.008,10.864 18.48,9.04 18.48,6.8 C18.48,4.56 17.008,2.752 14.656,2.752 C12.304,2.752 10.832,4.56 10.832,6.8 C10.832,9.04 12.304,10.864 14.656,10.864 Z M14.656,9.792 C13.008,9.792 12.096,8.384 12.096,6.8 C12.096,5.232 13.008,3.824 14.656,3.824 C16.304,3.824 17.216,5.232 17.216,6.8 C17.216,8.384 16.304,9.792 14.656,9.792 Z" id="Shape"></path>
                            </g>
                            <g id="Do-you-have-any-pets" transform="translate(59.043000, 0.000000)" fill="#1B2125" fill-rule="nonzero">
                                <path d="M5.808,14.894 C10.384,14.894 13.574,11.99 13.574,7.546 C13.574,3.146 10.384,0.22 5.786,0.22 L0,0.22 L0,14.894 L5.808,14.894 Z M5.786,12.144 L3.124,12.144 L3.124,2.97 L5.808,2.97 C8.8,2.97 10.384,4.972 10.384,7.546 C10.384,10.054 8.69,12.144 5.786,12.144 Z" id="Shape"></path>
                                <path d="M20.658,15.158 C24.178,15.158 26.29,12.584 26.29,9.57 C26.29,6.556 24.178,4.004 20.658,4.004 C17.16,4.004 15.048,6.556 15.048,9.57 C15.048,12.584 17.16,15.158 20.658,15.158 Z M20.658,12.672 C18.92,12.672 17.952,11.242 17.952,9.57 C17.952,7.92 18.92,6.49 20.658,6.49 C22.418,6.49 23.386,7.92 23.386,9.57 C23.386,11.242 22.418,12.672 20.658,12.672 Z" id="Shape"></path>
                                <path d="M33.682,19.03 C34.012,19.14 34.738,19.206 35.046,19.206 C36.872,19.162 38.28,18.634 39.072,16.632 L44.066,4.268 L41.074,4.268 L38.28,11.66 L35.508,4.268 L32.516,4.268 L36.828,15.026 L36.432,15.95 C36.168,16.522 35.684,16.72 34.958,16.72 C34.694,16.72 34.32,16.654 34.078,16.544 L33.682,19.03 Z" id="Path"></path>
                                <path d="M50.248,15.158 C53.768,15.158 55.88,12.584 55.88,9.57 C55.88,6.556 53.768,4.004 50.248,4.004 C46.75,4.004 44.638,6.556 44.638,9.57 C44.638,12.584 46.75,15.158 50.248,15.158 Z M50.248,12.672 C48.51,12.672 47.542,11.242 47.542,9.57 C47.542,7.92 48.51,6.49 50.248,6.49 C52.008,6.49 52.976,7.92 52.976,9.57 C52.976,11.242 52.008,12.672 50.248,12.672 Z" id="Shape"></path>
                                <path d="M67.936,14.894 L67.936,4.268 L65.142,4.268 L65.142,11.462 C64.658,12.078 63.8,12.672 62.722,12.672 C61.534,12.672 60.764,12.188 60.764,10.714 L60.764,4.268 L57.97,4.268 L57.97,11.814 C57.97,13.882 59.07,15.158 61.402,15.158 C63.14,15.158 64.416,14.344 65.142,13.552 L65.142,14.894 L67.936,14.894 Z" id="Path"></path>
                                <path d="M86.35,14.894 L86.35,7.348 C86.35,5.28 85.228,4.004 82.896,4.004 C81.158,4.004 79.86,4.84 79.178,5.632 L79.178,0.22 L76.362,0.22 L76.362,14.894 L79.178,14.894 L79.178,7.722 C79.64,7.106 80.498,6.49 81.598,6.49 C82.786,6.49 83.556,6.952 83.556,8.426 L83.556,14.894 L86.35,14.894 Z" id="Path"></path>
                                <path d="M98.318,14.894 L98.318,8.03 C98.318,4.972 96.096,4.004 93.654,4.004 C91.982,4.004 90.31,4.51 89.012,5.676 L90.112,7.634 C90.992,6.82 92.048,6.38 93.17,6.38 C94.578,6.38 95.502,7.084 95.502,8.162 L95.502,9.504 C94.798,8.668 93.566,8.206 92.136,8.206 C90.442,8.206 88.462,9.13 88.462,11.638 C88.462,14.014 90.442,15.158 92.136,15.158 C93.522,15.158 94.776,14.652 95.502,13.772 L95.502,14.894 L98.318,14.894 Z M93.258,13.266 C92.158,13.266 91.256,12.694 91.256,11.682 C91.256,10.67 92.158,10.076 93.258,10.076 C94.16,10.076 95.04,10.406 95.502,11.022 L95.502,12.342 C95.04,12.958 94.16,13.266 93.258,13.266 Z" id="Shape"></path>
                                <polygon id="Path" points="106.832 14.894 111.1 4.268 108.108 4.268 105.314 11.66 102.542 4.268 99.55 4.268 103.818 14.894"></polygon>
                                <path d="M117.348,15.158 C118.998,15.158 120.67,14.652 121.726,13.684 L120.472,11.836 C119.79,12.496 118.558,12.87 117.656,12.87 C115.852,12.87 114.796,11.792 114.598,10.494 L122.496,10.494 L122.496,9.834 C122.496,6.38 120.362,4.004 117.172,4.004 C113.96,4.004 111.672,6.49 111.672,9.57 C111.672,12.98 114.114,15.158 117.348,15.158 Z M119.812,8.558 L114.576,8.558 C114.686,7.502 115.434,6.292 117.172,6.292 C119.02,6.292 119.724,7.546 119.812,8.558 Z" id="Shape"></path>
                                <path d="M139.37,14.894 L139.37,8.03 C139.37,4.972 137.148,4.004 134.706,4.004 C133.034,4.004 131.362,4.51 130.064,5.676 L131.164,7.634 C132.044,6.82 133.1,6.38 134.222,6.38 C135.63,6.38 136.554,7.084 136.554,8.162 L136.554,9.504 C135.85,8.668 134.618,8.206 133.188,8.206 C131.494,8.206 129.514,9.13 129.514,11.638 C129.514,14.014 131.494,15.158 133.188,15.158 C134.574,15.158 135.828,14.652 136.554,13.772 L136.554,14.894 L139.37,14.894 Z M134.31,13.266 C133.21,13.266 132.308,12.694 132.308,11.682 C132.308,10.67 133.21,10.076 134.31,10.076 C135.212,10.076 136.092,10.406 136.554,11.022 L136.554,12.342 C136.092,12.958 135.212,13.266 134.31,13.266 Z" id="Shape"></path>
                                <path d="M152.108,14.894 L152.108,7.392 C152.108,5.324 150.986,4.004 148.632,4.004 C146.916,4.004 145.596,4.84 144.914,5.632 L144.914,4.268 L142.12,4.268 L142.12,14.894 L144.914,14.894 L144.914,7.722 C145.398,7.106 146.234,6.49 147.334,6.49 C148.522,6.49 149.292,6.996 149.292,8.47 L149.292,14.894 L152.108,14.894 Z" id="Path"></path>
                                <path d="M154.506,19.03 C154.836,19.14 155.562,19.206 155.87,19.206 C157.696,19.162 159.104,18.634 159.896,16.632 L164.89,4.268 L161.898,4.268 L159.104,11.66 L156.332,4.268 L153.34,4.268 L157.652,15.026 L157.256,15.95 C156.992,16.522 156.508,16.72 155.782,16.72 C155.518,16.72 155.144,16.654 154.902,16.544 L154.506,19.03 Z" id="Path"></path>
                                <path d="M177.87,15.158 C180.598,15.158 182.578,13.112 182.578,9.57 C182.578,6.028 180.598,4.004 177.87,4.004 C176.572,4.004 175.406,4.576 174.592,5.61 L174.592,4.268 L171.798,4.268 L171.798,18.942 L174.592,18.942 L174.592,13.53 C175.472,14.63 176.616,15.158 177.87,15.158 Z M176.99,12.672 C176.088,12.672 175.054,12.122 174.592,11.44 L174.592,7.7 C175.076,6.996 176.088,6.49 176.99,6.49 C178.596,6.49 179.696,7.744 179.696,9.57 C179.696,11.418 178.596,12.672 176.99,12.672 Z" id="Shape"></path>
                                <path d="M189.618,15.158 C191.268,15.158 192.94,14.652 193.996,13.684 L192.742,11.836 C192.06,12.496 190.828,12.87 189.926,12.87 C188.122,12.87 187.066,11.792 186.868,10.494 L194.766,10.494 L194.766,9.834 C194.766,6.38 192.632,4.004 189.442,4.004 C186.23,4.004 183.942,6.49 183.942,9.57 C183.942,12.98 186.384,15.158 189.618,15.158 Z M192.082,8.558 L186.846,8.558 C186.956,7.502 187.704,6.292 189.442,6.292 C191.29,6.292 191.994,7.546 192.082,8.558 Z" id="Shape"></path>
                                <path d="M200.354,15.158 C201.52,15.158 202.268,14.85 202.686,14.476 L202.092,12.342 C201.938,12.518 201.542,12.672 201.124,12.672 C200.508,12.672 200.156,12.166 200.156,11.484 L200.156,6.71 L202.312,6.71 L202.312,4.268 L200.156,4.268 L200.156,1.364 L197.362,1.364 L197.362,4.268 L195.602,4.268 L195.602,6.71 L197.362,6.71 L197.362,12.232 C197.362,14.146 198.396,15.158 200.354,15.158 Z" id="Path"></path>
                                <path d="M208.054,15.158 C211.002,15.158 212.674,13.728 212.674,11.77 C212.674,7.48 206.36,8.8 206.36,7.238 C206.36,6.644 207.02,6.204 208.032,6.204 C209.33,6.204 210.54,6.776 211.178,7.436 L212.3,5.456 C211.244,4.62 209.814,4.004 208.032,4.004 C205.216,4.004 203.676,5.566 203.676,7.348 C203.676,11.528 209.968,10.098 209.968,11.836 C209.968,12.496 209.396,12.958 208.186,12.958 C206.866,12.958 205.304,12.232 204.512,11.484 L203.302,13.508 C204.424,14.542 206.206,15.158 208.054,15.158 Z" id="Path"></path>
                                <path d="M217.25,10.406 L219.67,9.702 C219.428,9.504 219.252,9.13 219.252,8.778 C219.252,6.93 222.926,6.688 222.926,3.476 C222.926,1.43 221.188,0 218.35,0 C216.458,0 214.698,0.748 213.532,2.134 L215.314,4.136 C215.996,3.3 216.92,2.772 218.02,2.772 C219.23,2.772 219.758,3.344 219.758,4.026 C219.758,5.544 216.524,5.852 216.524,8.448 C216.524,9.218 216.788,9.9 217.25,10.406 Z M218.306,15.136 C219.274,15.136 220.088,14.322 220.088,13.354 C220.088,12.386 219.274,11.572 218.306,11.572 C217.338,11.572 216.524,12.386 216.524,13.354 C216.524,14.322 217.338,15.136 218.306,15.136 Z" id="Shape"></path>
                            </g>
                            <g id="Rectangle-8">
                                <use fill="black" fill-opacity="1" filter="url(#filter-6)" xlink:href="#path-5"></use>
                                <use fill="#FFFFFF" fill-rule="evenodd" xlink:href="#path-5"></use>
                            </g>
                            <line x1="25.3205128" y1="135.308957" x2="25.3205128" y2="148.808957" id="Line-4" stroke="#2EC275" stroke-width="1.5" stroke-linecap="square"></line>
                            <g id="What-kind?-Some-of-o" transform="translate(28.210000, 137.624000)" fill="#A7A7AB" fill-rule="nonzero">
                                <polygon id="Path" points="9.96 10.17 12.825 0.165 11.43 0.165 9.225 8.505 6.93 0.165 5.895 0.165 3.6 8.505 1.38 0.165 0 0.165 2.85 10.17 4.2 10.17 6.405 2.1 8.61 10.17"></polygon>
                                <path d="M20.19,10.17 L20.19,5.055 C20.19,3.48 19.395,2.745 17.88,2.745 C16.785,2.745 15.795,3.36 15.3,3.975 L15.3,0.165 L14.175,0.165 L14.175,10.17 L15.3,10.17 L15.3,4.875 C15.72,4.29 16.56,3.75 17.43,3.75 C18.42,3.75 19.065,4.11 19.065,5.4 L19.065,10.17 L20.19,10.17 Z" id="Path"></path>
                                <path d="M28.095,10.17 L28.095,5.19 C28.095,3.435 26.835,2.745 25.29,2.745 C24.105,2.745 23.175,3.135 22.395,3.945 L22.92,4.725 C23.565,4.02 24.27,3.72 25.14,3.72 C26.19,3.72 26.97,4.275 26.97,5.235 L26.97,6.54 C26.385,5.88 25.56,5.565 24.57,5.565 C23.34,5.565 22.05,6.315 22.05,7.95 C22.05,9.525 23.355,10.35 24.57,10.35 C25.545,10.35 26.385,10.005 26.97,9.345 L26.97,10.17 L28.095,10.17 Z M24.99,9.54 C23.925,9.54 23.19,8.88 23.19,7.95 C23.19,7.035 23.925,6.375 24.99,6.375 C25.77,6.375 26.535,6.675 26.97,7.26 L26.97,8.64 C26.535,9.24 25.77,9.54 24.99,9.54 Z" id="Shape"></path>
                                <path d="M32.205,10.35 C32.85,10.35 33.255,10.155 33.54,9.885 L33.21,9.03 C33.06,9.195 32.775,9.345 32.445,9.345 C31.965,9.345 31.725,8.955 31.725,8.415 L31.725,3.915 L33.195,3.915 L33.195,2.925 L31.725,2.925 L31.725,0.945 L30.585,0.945 L30.585,2.925 L29.385,2.925 L29.385,3.915 L30.585,3.915 L30.585,8.655 C30.585,9.735 31.125,10.35 32.205,10.35 Z" id="Path"></path>
                                <polygon id="Path" points="45.03 10.17 41.805 6.21 45.015 2.925 43.59 2.925 39.78 6.78 39.78 0.165 38.655 0.165 38.655 10.17 39.78 10.17 39.78 8.1 40.995 6.915 43.59 10.17"></polygon>
                                <path d="M46.935,1.89 C47.355,1.89 47.685,1.56 47.685,1.14 C47.685,0.72 47.355,0.375 46.935,0.375 C46.515,0.375 46.17,0.72 46.17,1.14 C46.17,1.56 46.515,1.89 46.935,1.89 Z M47.49,10.17 L47.49,2.925 L46.365,2.925 L46.365,10.17 L47.49,10.17 Z" id="Shape"></path>
                                <path d="M55.755,10.17 L55.755,5.085 C55.755,3.51 54.96,2.745 53.46,2.745 C52.365,2.745 51.375,3.36 50.865,3.975 L50.865,2.925 L49.74,2.925 L49.74,10.17 L50.865,10.17 L50.865,4.875 C51.3,4.29 52.125,3.75 53.01,3.75 C53.985,3.75 54.645,4.14 54.645,5.43 L54.645,10.17 L55.755,10.17 Z" id="Path"></path>
                                <path d="M64.395,10.17 L64.395,0.165 L63.27,0.165 L63.27,4.02 C62.685,3.225 61.8,2.745 60.825,2.745 C58.935,2.745 57.6,4.23 57.6,6.555 C57.6,8.91 58.935,10.35 60.825,10.35 C61.845,10.35 62.73,9.825 63.27,9.09 L63.27,10.17 L64.395,10.17 Z M61.11,9.345 C59.64,9.345 58.77,8.16 58.77,6.555 C58.77,4.95 59.64,3.75 61.11,3.75 C61.995,3.75 62.88,4.29 63.27,4.92 L63.27,8.19 C62.88,8.82 61.995,9.345 61.11,9.345 Z" id="Shape"></path>
                                <path d="M68.565,7.395 L69.48,6.99 C69.225,6.81 69.09,6.51 69.09,6.27 C69.09,4.8 71.985,4.605 71.985,2.34 C71.985,1.05 70.875,0.015 69.045,0.015 C67.62,0.015 66.51,0.6 65.79,1.545 L66.54,2.355 C67.095,1.605 67.8,1.125 68.94,1.125 C70.11,1.125 70.695,1.77 70.695,2.52 C70.695,4.11 67.995,4.26 67.995,6.165 C67.995,6.63 68.16,7.05 68.565,7.395 Z M68.88,10.32 C69.33,10.32 69.705,9.945 69.705,9.495 C69.705,9.045 69.33,8.67 68.88,8.67 C68.43,8.67 68.055,9.045 68.055,9.495 C68.055,9.945 68.43,10.32 68.88,10.32 Z" id="Shape"></path>
                                <path d="M80.745,10.35 C83.445,10.35 84.435,8.85 84.435,7.41 C84.435,3.675 78.51,4.965 78.51,2.715 C78.51,1.77 79.38,1.125 80.565,1.125 C81.66,1.125 82.71,1.485 83.46,2.325 L84.21,1.41 C83.37,0.525 82.185,0 80.67,0 C78.69,0 77.22,1.14 77.22,2.79 C77.22,6.36 83.145,4.92 83.145,7.5 C83.145,8.28 82.575,9.24 80.79,9.24 C79.38,9.24 78.3,8.55 77.655,7.8 L76.905,8.76 C77.73,9.69 79.02,10.35 80.745,10.35 Z" id="Path"></path>
                                <path d="M89.415,10.35 C91.62,10.35 93,8.64 93,6.54 C93,4.44 91.62,2.745 89.415,2.745 C87.21,2.745 85.83,4.44 85.83,6.54 C85.83,8.64 87.21,10.35 89.415,10.35 Z M89.415,9.345 C87.87,9.345 87.015,8.025 87.015,6.54 C87.015,5.07 87.87,3.75 89.415,3.75 C90.96,3.75 91.815,5.07 91.815,6.54 C91.815,8.025 90.96,9.345 89.415,9.345 Z" id="Shape"></path>
                                <path d="M104.7,10.17 L104.7,4.935 C104.7,3.48 103.995,2.745 102.675,2.745 C101.625,2.745 100.65,3.435 100.245,4.095 C100.035,3.345 99.405,2.745 98.31,2.745 C97.23,2.745 96.27,3.51 95.955,3.975 L95.955,2.925 L94.83,2.925 L94.83,10.17 L95.955,10.17 L95.955,4.875 C96.345,4.29 97.125,3.75 97.86,3.75 C98.82,3.75 99.195,4.335 99.195,5.25 L99.195,10.17 L100.32,10.17 L100.32,4.86 C100.695,4.275 101.49,3.75 102.24,3.75 C103.185,3.75 103.575,4.335 103.575,5.25 L103.575,10.17 L104.7,10.17 Z" id="Path"></path>
                                <path d="M110.235,10.35 C111.405,10.35 112.38,9.945 113.115,9.225 L112.575,8.49 C111.99,9.09 111.165,9.42 110.325,9.42 C108.765,9.42 107.82,8.28 107.73,6.915 L113.58,6.915 L113.58,6.63 C113.58,4.455 112.29,2.745 110.1,2.745 C108.03,2.745 106.53,4.44 106.53,6.54 C106.53,8.805 108.075,10.35 110.235,10.35 Z M112.47,6.075 L107.715,6.075 C107.775,4.98 108.54,3.675 110.085,3.675 C111.735,3.675 112.455,5.01 112.47,6.075 Z" id="Shape"></path>
                                <path d="M122.445,10.35 C124.65,10.35 126.03,8.64 126.03,6.54 C126.03,4.44 124.65,2.745 122.445,2.745 C120.24,2.745 118.86,4.44 118.86,6.54 C118.86,8.64 120.24,10.35 122.445,10.35 Z M122.445,9.345 C120.9,9.345 120.045,8.025 120.045,6.54 C120.045,5.07 120.9,3.75 122.445,3.75 C123.99,3.75 124.845,5.07 124.845,6.54 C124.845,8.025 123.99,9.345 122.445,9.345 Z" id="Shape"></path>
                                <path d="M129.3,10.17 L129.3,3.915 L130.77,3.915 L130.77,2.925 L129.3,2.925 L129.3,2.37 C129.3,1.44 129.705,0.945 130.455,0.945 C130.815,0.945 131.1,1.08 131.34,1.29 L131.805,0.57 C131.355,0.15 130.86,0.015 130.275,0.015 C129,0.015 128.175,0.885 128.175,2.37 L128.175,2.925 L126.975,2.925 L126.975,3.915 L128.175,3.915 L128.175,10.17 L129.3,10.17 Z" id="Path"></path>
                                <path d="M139.17,10.35 C141.375,10.35 142.755,8.64 142.755,6.54 C142.755,4.44 141.375,2.745 139.17,2.745 C136.965,2.745 135.585,4.44 135.585,6.54 C135.585,8.64 136.965,10.35 139.17,10.35 Z M139.17,9.345 C137.625,9.345 136.77,8.025 136.77,6.54 C136.77,5.07 137.625,3.75 139.17,3.75 C140.715,3.75 141.57,5.07 141.57,6.54 C141.57,8.025 140.715,9.345 139.17,9.345 Z" id="Shape"></path>
                                <path d="M150.6,10.17 L150.6,2.925 L149.475,2.925 L149.475,8.25 C149.055,8.835 148.215,9.345 147.345,9.345 C146.355,9.345 145.71,8.97 145.71,7.695 L145.71,2.925 L144.585,2.925 L144.585,8.04 C144.585,9.6 145.38,10.35 146.895,10.35 C147.975,10.35 148.92,9.78 149.475,9.15 L149.475,10.17 L150.6,10.17 Z" id="Path"></path>
                                <path d="M153.975,10.17 L153.975,5.04 C154.305,4.455 155.25,3.885 155.955,3.885 C156.12,3.885 156.255,3.9 156.39,3.915 L156.39,2.76 C155.4,2.76 154.56,3.33 153.975,4.08 L153.975,2.925 L152.85,2.925 L152.85,10.17 L153.975,10.17 Z" id="Path"></path>
                                <path d="M164.88,10.35 C166.2,10.35 166.98,9.81 167.535,9.09 L166.785,8.4 C166.305,9.045 165.69,9.345 164.94,9.345 C163.41,9.345 162.435,8.145 162.435,6.54 C162.435,4.935 163.41,3.75 164.94,3.75 C165.69,3.75 166.305,4.02 166.785,4.68 L167.535,4.005 C166.98,3.285 166.2,2.745 164.88,2.745 C162.72,2.745 161.265,4.395 161.265,6.54 C161.265,8.685 162.72,10.35 164.88,10.35 Z" id="Path"></path>
                                <polygon id="Path" points="170.25 10.17 170.25 0.165 169.125 0.165 169.125 10.17"></polygon>
                                <path d="M175.785,10.35 C176.955,10.35 177.93,9.945 178.665,9.225 L178.125,8.49 C177.54,9.09 176.715,9.42 175.875,9.42 C174.315,9.42 173.37,8.28 173.28,6.915 L179.13,6.915 L179.13,6.63 C179.13,4.455 177.84,2.745 175.65,2.745 C173.58,2.745 172.08,4.44 172.08,6.54 C172.08,8.805 173.625,10.35 175.785,10.35 Z M178.02,6.075 L173.265,6.075 C173.325,4.98 174.09,3.675 175.635,3.675 C177.285,3.675 178.005,5.01 178.02,6.075 Z" id="Shape"></path>
                                <path d="M186.6,10.17 L186.6,5.19 C186.6,3.435 185.34,2.745 183.795,2.745 C182.61,2.745 181.68,3.135 180.9,3.945 L181.425,4.725 C182.07,4.02 182.775,3.72 183.645,3.72 C184.695,3.72 185.475,4.275 185.475,5.235 L185.475,6.54 C184.89,5.88 184.065,5.565 183.075,5.565 C181.845,5.565 180.555,6.315 180.555,7.95 C180.555,9.525 181.86,10.35 183.075,10.35 C184.05,10.35 184.89,10.005 185.475,9.345 L185.475,10.17 L186.6,10.17 Z M183.495,9.54 C182.43,9.54 181.695,8.88 181.695,7.95 C181.695,7.035 182.43,6.375 183.495,6.375 C184.275,6.375 185.04,6.675 185.475,7.26 L185.475,8.64 C185.04,9.24 184.275,9.54 183.495,9.54 Z" id="Shape"></path>
                                <path d="M194.88,10.17 L194.88,5.085 C194.88,3.51 194.085,2.745 192.585,2.745 C191.49,2.745 190.5,3.36 189.99,3.975 L189.99,2.925 L188.865,2.925 L188.865,10.17 L189.99,10.17 L189.99,4.875 C190.425,4.29 191.25,3.75 192.135,3.75 C193.11,3.75 193.77,4.14 193.77,5.43 L193.77,10.17 L194.88,10.17 Z" id="Path"></path>
                                <path d="M200.43,10.35 C201.6,10.35 202.575,9.945 203.31,9.225 L202.77,8.49 C202.185,9.09 201.36,9.42 200.52,9.42 C198.96,9.42 198.015,8.28 197.925,6.915 L203.775,6.915 L203.775,6.63 C203.775,4.455 202.485,2.745 200.295,2.745 C198.225,2.745 196.725,4.44 196.725,6.54 C196.725,8.805 198.27,10.35 200.43,10.35 Z M202.665,6.075 L197.91,6.075 C197.97,4.98 198.735,3.675 200.28,3.675 C201.93,3.675 202.65,5.01 202.665,6.075 Z" id="Shape"></path>
                                <path d="M206.715,10.17 L206.715,5.04 C207.045,4.455 207.99,3.885 208.695,3.885 C208.86,3.885 208.995,3.9 209.13,3.915 L209.13,2.76 C208.14,2.76 207.3,3.33 206.715,4.08 L206.715,2.925 L205.59,2.925 L205.59,10.17 L206.715,10.17 Z" id="Path"></path>
                                <path d="M212.85,10.35 C214.71,10.35 215.685,9.375 215.685,8.16 C215.685,5.34 211.2,6.375 211.2,4.8 C211.2,4.155 211.815,3.66 212.805,3.66 C213.75,3.66 214.53,4.05 214.965,4.575 L215.49,3.795 C214.92,3.21 214.05,2.745 212.805,2.745 C211.08,2.745 210.12,3.69 210.12,4.83 C210.12,7.515 214.605,6.435 214.605,8.19 C214.605,8.91 213.99,9.435 212.88,9.435 C211.89,9.435 210.975,8.955 210.495,8.4 L209.925,9.21 C210.66,9.975 211.65,10.35 212.85,10.35 Z" id="Path"></path>
                                <path d="M227.43,10.17 L227.43,5.055 C227.43,3.48 226.635,2.745 225.12,2.745 C224.025,2.745 223.035,3.36 222.54,3.975 L222.54,0.165 L221.415,0.165 L221.415,10.17 L222.54,10.17 L222.54,4.875 C222.96,4.29 223.8,3.75 224.67,3.75 C225.66,3.75 226.305,4.11 226.305,5.4 L226.305,10.17 L227.43,10.17 Z" id="Path"></path>
                                <path d="M235.335,10.17 L235.335,5.19 C235.335,3.435 234.075,2.745 232.53,2.745 C231.345,2.745 230.415,3.135 229.635,3.945 L230.16,4.725 C230.805,4.02 231.51,3.72 232.38,3.72 C233.43,3.72 234.21,4.275 234.21,5.235 L234.21,6.54 C233.625,5.88 232.8,5.565 231.81,5.565 C230.58,5.565 229.29,6.315 229.29,7.95 C229.29,9.525 230.595,10.35 231.81,10.35 C232.785,10.35 233.625,10.005 234.21,9.345 L234.21,10.17 L235.335,10.17 Z M232.23,9.54 C231.165,9.54 230.43,8.88 230.43,7.95 C230.43,7.035 231.165,6.375 232.23,6.375 C233.01,6.375 233.775,6.675 234.21,7.26 L234.21,8.64 C233.775,9.24 233.01,9.54 232.23,9.54 Z" id="Shape"></path>
                                <polygon id="Path" points="240.765 10.17 243.78 2.925 242.565 2.925 240.15 8.865 237.75 2.925 236.52 2.925 239.535 10.17"></polygon>
                                <path d="M248.235,10.35 C249.405,10.35 250.38,9.945 251.115,9.225 L250.575,8.49 C249.99,9.09 249.165,9.42 248.325,9.42 C246.765,9.42 245.82,8.28 245.73,6.915 L251.58,6.915 L251.58,6.63 C251.58,4.455 250.29,2.745 248.1,2.745 C246.03,2.745 244.53,4.44 244.53,6.54 C244.53,8.805 246.075,10.35 248.235,10.35 Z M250.47,6.075 L245.715,6.075 C245.775,4.98 246.54,3.675 248.085,3.675 C249.735,3.675 250.455,5.01 250.47,6.075 Z" id="Shape"></path>
                                <path d="M6.57,28.17 L6.57,23.19 C6.57,21.435 5.31,20.745 3.765,20.745 C2.58,20.745 1.65,21.135 0.87,21.945 L1.395,22.725 C2.04,22.02 2.745,21.72 3.615,21.72 C4.665,21.72 5.445,22.275 5.445,23.235 L5.445,24.54 C4.86,23.88 4.035,23.565 3.045,23.565 C1.815,23.565 0.525,24.315 0.525,25.95 C0.525,27.525 1.83,28.35 3.045,28.35 C4.02,28.35 4.86,28.005 5.445,27.345 L5.445,28.17 L6.57,28.17 Z M3.465,27.54 C2.4,27.54 1.665,26.88 1.665,25.95 C1.665,25.035 2.4,24.375 3.465,24.375 C4.245,24.375 5.01,24.675 5.445,25.26 L5.445,26.64 C5.01,27.24 4.245,27.54 3.465,27.54 Z" id="Shape"></path>
                                <polygon id="Path" points="9.96 28.17 9.96 18.165 8.835 18.165 8.835 28.17"></polygon>
                                <path d="M15.495,28.35 C16.665,28.35 17.64,27.945 18.375,27.225 L17.835,26.49 C17.25,27.09 16.425,27.42 15.585,27.42 C14.025,27.42 13.08,26.28 12.99,24.915 L18.84,24.915 L18.84,24.63 C18.84,22.455 17.55,20.745 15.36,20.745 C13.29,20.745 11.79,22.44 11.79,24.54 C11.79,26.805 13.335,28.35 15.495,28.35 Z M17.73,24.075 L12.975,24.075 C13.035,22.98 13.8,21.675 15.345,21.675 C16.995,21.675 17.715,23.01 17.73,24.075 Z" id="Shape"></path>
                                <path d="M21.78,28.17 L21.78,23.04 C22.11,22.455 23.055,21.885 23.76,21.885 C23.925,21.885 24.06,21.9 24.195,21.915 L24.195,20.76 C23.205,20.76 22.365,21.33 21.78,22.08 L21.78,20.925 L20.655,20.925 L20.655,28.17 L21.78,28.17 Z" id="Path"></path>
                                <path d="M28.89,28.35 C30.06,28.35 31.035,27.945 31.77,27.225 L31.23,26.49 C30.645,27.09 29.82,27.42 28.98,27.42 C27.42,27.42 26.475,26.28 26.385,24.915 L32.235,24.915 L32.235,24.63 C32.235,22.455 30.945,20.745 28.755,20.745 C26.685,20.745 25.185,22.44 25.185,24.54 C25.185,26.805 26.73,28.35 28.89,28.35 Z M31.125,24.075 L26.37,24.075 C26.43,22.98 27.195,21.675 28.74,21.675 C30.39,21.675 31.11,23.01 31.125,24.075 Z" id="Shape"></path>
                                <path d="M35.175,28.17 L35.175,23.04 C35.505,22.455 36.45,21.885 37.155,21.885 C37.32,21.885 37.455,21.9 37.59,21.915 L37.59,20.76 C36.6,20.76 35.76,21.33 35.175,22.08 L35.175,20.925 L34.05,20.925 L34.05,28.17 L35.175,28.17 Z" id="Path"></path>
                                <path d="M41.91,31.11 C43.68,31.11 45.375,30.36 45.375,28.065 L45.375,20.925 L44.25,20.925 L44.25,22.02 C43.665,21.225 42.78,20.745 41.805,20.745 C39.9,20.745 38.58,22.185 38.58,24.51 C38.58,26.85 39.915,28.26 41.805,28.26 C42.825,28.26 43.71,27.705 44.25,26.97 L44.25,28.065 C44.25,29.595 43.11,30.18 41.91,30.18 C40.875,30.18 40.155,29.91 39.555,29.205 L38.985,30.015 C39.855,30.87 40.695,31.11 41.91,31.11 Z M42.09,27.255 C40.62,27.255 39.75,26.1 39.75,24.51 C39.75,22.905 40.62,21.75 42.09,21.75 C42.975,21.75 43.845,22.29 44.25,22.905 L44.25,26.085 C43.845,26.715 42.975,27.255 42.09,27.255 Z" id="Shape"></path>
                                <path d="M48.195,19.89 C48.615,19.89 48.945,19.56 48.945,19.14 C48.945,18.72 48.615,18.375 48.195,18.375 C47.775,18.375 47.43,18.72 47.43,19.14 C47.43,19.56 47.775,19.89 48.195,19.89 Z M48.75,28.17 L48.75,20.925 L47.625,20.925 L47.625,28.17 L48.75,28.17 Z" id="Shape"></path>
                                <path d="M54.285,28.35 C55.455,28.35 56.43,27.945 57.165,27.225 L56.625,26.49 C56.04,27.09 55.215,27.42 54.375,27.42 C52.815,27.42 51.87,26.28 51.78,24.915 L57.63,24.915 L57.63,24.63 C57.63,22.455 56.34,20.745 54.15,20.745 C52.08,20.745 50.58,22.44 50.58,24.54 C50.58,26.805 52.125,28.35 54.285,28.35 Z M56.52,24.075 L51.765,24.075 C51.825,22.98 52.59,21.675 54.135,21.675 C55.785,21.675 56.505,23.01 56.52,24.075 Z" id="Shape"></path>
                                <path d="M61.755,28.35 C63.615,28.35 64.59,27.375 64.59,26.16 C64.59,23.34 60.105,24.375 60.105,22.8 C60.105,22.155 60.72,21.66 61.71,21.66 C62.655,21.66 63.435,22.05 63.87,22.575 L64.395,21.795 C63.825,21.21 62.955,20.745 61.71,20.745 C59.985,20.745 59.025,21.69 59.025,22.83 C59.025,25.515 63.51,24.435 63.51,26.19 C63.51,26.91 62.895,27.435 61.785,27.435 C60.795,27.435 59.88,26.955 59.4,26.4 L58.83,27.21 C59.565,27.975 60.555,28.35 61.755,28.35 Z" id="Path"></path>
                                <path d="M67.02,28.32 C67.47,28.32 67.845,27.945 67.845,27.495 C67.845,27.045 67.47,26.67 67.02,26.67 C66.57,26.67 66.195,27.045 66.195,27.495 C66.195,27.945 66.57,28.32 67.02,28.32 Z" id="Path"></path>
                            </g>
                            <polygon id="Rectangle" fill="#E5E5EA" transform="translate(170.000000, 106.094000) scale(1, -1) translate(-170.000000, -106.094000) " points="2 105.594 338 105.594 338 106.594 2 106.594"></polygon>
                        </g>
                    </g>
                </g>
            </g>
        </g>
        <g id="67d1bd2ad29c4adc50fb195375f31fcb1674823604794398778c01f6c185d702" transform="translate(644.445753, -75.000000)">
            <path d="M561.027946,506.344362 C514.64953,607.558902 412.442301,677.841262 293.835855,677.841262 C175.229409,677.841262 73.0221808,607.558902 26.6437647,506.344362 C9.52981152,469.098682 0,427.644002 0,384.005407 C0,221.720658 131.551107,90.1695513 293.835855,90.1695513 C456.120604,90.1695513 587.671711,221.720658 587.671711,384.005407 C587.671711,427.644002 578.141899,469.098682 561.027946,506.344362 Z" id="Path" fill="#F9FAFB" fill-rule="nonzero"></path>
            <g id="Clipped" transform="translate(0.436783, 0.000000)">
                <mask id="mask-8" fill="white">
                    <use xlink:href="#path-7"></use>
                </mask>
                <g id="Path"></g>
                <g id="Group" mask="url(#mask-8)">
                    <g transform="translate(96.667017, 245.568917)" id="Group-20">
                        <g id="Rectangle">
                            <use fill="black" fill-opacity="1" filter="url(#filter-10)" xlink:href="#path-9"></use>
                            <use fill="#FFFFFF" fill-rule="evenodd" xlink:href="#path-9"></use>
                        </g>
                        <g id="Group-2" transform="translate(27.168838, 40.037967)">
                            <g id="Add-Pictures?" transform="translate(99.129000, 0.000000)" fill="#1B2125" fill-rule="nonzero">
                                <path d="M15.224,15.092 L9.57,0.418 L5.654,0.418 L0,15.092 L3.542,15.092 L4.466,12.606 L10.758,12.606 L11.682,15.092 L15.224,15.092 Z M9.9,9.856 L5.324,9.856 L7.612,3.542 L9.9,9.856 Z" id="Shape"></path>
                                <path d="M26.642,15.092 L26.642,0.418 L23.826,0.418 L23.826,5.83 C22.99,4.73 21.802,4.202 20.548,4.202 C17.842,4.202 15.84,6.314 15.84,9.768 C15.84,13.332 17.886,15.356 20.548,15.356 C21.846,15.356 22.99,14.784 23.826,13.728 L23.826,15.092 L26.642,15.092 Z M21.428,12.87 C19.822,12.87 18.722,11.616 18.722,9.768 C18.722,7.942 19.822,6.688 21.428,6.688 C22.352,6.688 23.364,7.194 23.826,7.898 L23.826,11.66 C23.364,12.364 22.352,12.87 21.428,12.87 Z" id="Shape"></path>
                                <path d="M39.534,15.092 L39.534,0.418 L36.718,0.418 L36.718,5.83 C35.882,4.73 34.694,4.202 33.44,4.202 C30.734,4.202 28.732,6.314 28.732,9.768 C28.732,13.332 30.778,15.356 33.44,15.356 C34.738,15.356 35.882,14.784 36.718,13.728 L36.718,15.092 L39.534,15.092 Z M34.32,12.87 C32.714,12.87 31.614,11.616 31.614,9.768 C31.614,7.942 32.714,6.688 34.32,6.688 C35.244,6.688 36.256,7.194 36.718,7.898 L36.718,11.66 C36.256,12.364 35.244,12.87 34.32,12.87 Z" id="Shape"></path>
                                <path d="M51.15,15.092 L51.15,9.856 L54.89,9.856 C58.058,9.856 59.818,7.7 59.818,5.148 C59.818,2.574 58.08,0.418 54.89,0.418 L48.026,0.418 L48.026,15.092 L51.15,15.092 Z M54.45,7.106 L51.15,7.106 L51.15,3.168 L54.45,3.168 C55.682,3.168 56.628,3.916 56.628,5.148 C56.628,6.358 55.682,7.106 54.45,7.106 Z" id="Shape"></path>
                                <path d="M63.096,3.322 C64.02,3.322 64.768,2.574 64.768,1.65 C64.768,0.726 64.02,0 63.096,0 C62.194,0 61.446,0.726 61.446,1.65 C61.446,2.574 62.194,3.322 63.096,3.322 Z M64.504,15.092 L64.504,4.466 L61.71,4.466 L61.71,15.092 L64.504,15.092 Z" id="Shape"></path>
                                <path d="M72.226,15.356 C74.404,15.356 75.724,14.388 76.428,13.42 L74.602,11.704 C74.096,12.43 73.326,12.87 72.358,12.87 C70.664,12.87 69.476,11.616 69.476,9.768 C69.476,7.92 70.664,6.688 72.358,6.688 C73.326,6.688 74.096,7.084 74.602,7.832 L76.428,6.116 C75.724,5.148 74.404,4.202 72.226,4.202 C68.97,4.202 66.594,6.512 66.594,9.768 C66.594,13.046 68.97,15.356 72.226,15.356 Z" id="Path"></path>
                                <path d="M81.818,15.356 C82.984,15.356 83.732,15.048 84.15,14.674 L83.556,12.54 C83.402,12.716 83.006,12.87 82.588,12.87 C81.972,12.87 81.62,12.364 81.62,11.682 L81.62,6.908 L83.776,6.908 L83.776,4.466 L81.62,4.466 L81.62,1.562 L78.826,1.562 L78.826,4.466 L77.066,4.466 L77.066,6.908 L78.826,6.908 L78.826,12.43 C78.826,14.344 79.86,15.356 81.818,15.356 Z" id="Path"></path>
                                <path d="M95.656,15.092 L95.656,4.466 L92.862,4.466 L92.862,11.66 C92.378,12.276 91.52,12.87 90.442,12.87 C89.254,12.87 88.484,12.386 88.484,10.912 L88.484,4.466 L85.69,4.466 L85.69,12.012 C85.69,14.08 86.79,15.356 89.122,15.356 C90.86,15.356 92.136,14.542 92.862,13.75 L92.862,15.092 L95.656,15.092 Z" id="Path"></path>
                                <path d="M101.222,15.092 L101.222,8.074 C101.684,7.392 102.916,6.864 103.84,6.864 C104.17,6.864 104.412,6.886 104.61,6.93 L104.61,4.202 C103.29,4.202 101.992,4.972 101.222,5.896 L101.222,4.466 L98.428,4.466 L98.428,15.092 L101.222,15.092 Z" id="Path"></path>
                                <path d="M111.342,15.356 C112.992,15.356 114.664,14.85 115.72,13.882 L114.466,12.034 C113.784,12.694 112.552,13.068 111.65,13.068 C109.846,13.068 108.79,11.99 108.592,10.692 L116.49,10.692 L116.49,10.032 C116.49,6.578 114.356,4.202 111.166,4.202 C107.954,4.202 105.666,6.688 105.666,9.768 C105.666,13.178 108.108,15.356 111.342,15.356 Z M113.806,8.756 L108.57,8.756 C108.68,7.7 109.428,6.49 111.166,6.49 C113.014,6.49 113.718,7.744 113.806,8.756 Z" id="Shape"></path>
                                <path d="M122.342,15.356 C125.29,15.356 126.962,13.926 126.962,11.968 C126.962,7.678 120.648,8.998 120.648,7.436 C120.648,6.842 121.308,6.402 122.32,6.402 C123.618,6.402 124.828,6.974 125.466,7.634 L126.588,5.654 C125.532,4.818 124.102,4.202 122.32,4.202 C119.504,4.202 117.964,5.764 117.964,7.546 C117.964,11.726 124.256,10.296 124.256,12.034 C124.256,12.694 123.684,13.156 122.474,13.156 C121.154,13.156 119.592,12.43 118.8,11.682 L117.59,13.706 C118.712,14.74 120.494,15.356 122.342,15.356 Z" id="Path"></path>
                                <path d="M131.538,10.604 L133.958,9.9 C133.716,9.702 133.54,9.328 133.54,8.976 C133.54,7.128 137.214,6.886 137.214,3.674 C137.214,1.628 135.476,0.198 132.638,0.198 C130.746,0.198 128.986,0.946 127.82,2.332 L129.602,4.334 C130.284,3.498 131.208,2.97 132.308,2.97 C133.518,2.97 134.046,3.542 134.046,4.224 C134.046,5.742 130.812,6.05 130.812,8.646 C130.812,9.416 131.076,10.098 131.538,10.604 Z M132.594,15.334 C133.562,15.334 134.376,14.52 134.376,13.552 C134.376,12.584 133.562,11.77 132.594,11.77 C131.626,11.77 130.812,12.584 130.812,13.552 C130.812,14.52 131.626,15.334 132.594,15.334 Z" id="Shape"></path>
                            </g>
                            <path d="M8,41.892 L332,41.892 C336.418278,41.892 340,45.473722 340,49.892 L340,175.892 C340,180.310278 336.418278,183.892 332,183.892 L8,183.892 C3.581722,183.892 9.4228672e-15,180.310278 0,175.892 L0,49.892 C-5.41083001e-16,45.473722 3.581722,41.892 8,41.892 Z" id="Rectangle" stroke="#9013FE" stroke-width="2" fill-opacity="0.0457277098" fill="#9013FE" stroke-linecap="round" stroke-linejoin="round" stroke-dasharray="6"></path>
                            <g id="Add-pictures-of-your" transform="translate(81.080000, 111.366412)" fill="#2A3742" fill-opacity="0.531413899" fill-rule="nonzero">
                                <path d="M32.055,10.155 L28.035,0.15 L26.49,0.15 L22.455,10.155 L23.88,10.155 L24.765,7.92 L29.745,7.92 L30.63,10.155 L32.055,10.155 Z M29.385,6.825 L25.14,6.825 L27.255,1.425 L29.385,6.825 Z" id="Shape"></path>
                                <path d="M39.69,10.155 L39.69,0.15 L38.565,0.15 L38.565,4.005 C37.98,3.21 37.095,2.73 36.12,2.73 C34.23,2.73 32.895,4.215 32.895,6.54 C32.895,8.895 34.23,10.335 36.12,10.335 C37.14,10.335 38.025,9.81 38.565,9.075 L38.565,10.155 L39.69,10.155 Z M36.405,9.33 C34.935,9.33 34.065,8.145 34.065,6.54 C34.065,4.935 34.935,3.735 36.405,3.735 C37.29,3.735 38.175,4.275 38.565,4.905 L38.565,8.175 C38.175,8.805 37.29,9.33 36.405,9.33 Z" id="Shape"></path>
                                <path d="M48.315,10.155 L48.315,0.15 L47.19,0.15 L47.19,4.005 C46.605,3.21 45.72,2.73 44.745,2.73 C42.855,2.73 41.52,4.215 41.52,6.54 C41.52,8.895 42.855,10.335 44.745,10.335 C45.765,10.335 46.65,9.81 47.19,9.075 L47.19,10.155 L48.315,10.155 Z M45.03,9.33 C43.56,9.33 42.69,8.145 42.69,6.54 C42.69,4.935 43.56,3.735 45.03,3.735 C45.915,3.735 46.8,4.275 47.19,4.905 L47.19,8.175 C46.8,8.805 45.915,9.33 45.03,9.33 Z" id="Shape"></path>
                                <path d="M58.02,10.335 C59.925,10.335 61.245,8.865 61.245,6.525 C61.245,4.17 59.925,2.73 58.02,2.73 C57,2.73 56.1,3.255 55.575,3.99 L55.575,2.91 L54.45,2.91 L54.45,12.915 L55.575,12.915 L55.575,9.06 C56.175,9.855 57.03,10.335 58.02,10.335 Z M57.735,9.33 C56.85,9.33 55.965,8.79 55.575,8.16 L55.575,4.89 C55.965,4.26 56.85,3.735 57.735,3.735 C59.19,3.735 60.06,4.92 60.06,6.525 C60.06,8.13 59.19,9.33 57.735,9.33 Z" id="Shape"></path>
                                <path d="M63.6,1.875 C64.02,1.875 64.35,1.545 64.35,1.125 C64.35,0.705 64.02,0.36 63.6,0.36 C63.18,0.36 62.835,0.705 62.835,1.125 C62.835,1.545 63.18,1.875 63.6,1.875 Z M64.155,10.155 L64.155,2.91 L63.03,2.91 L63.03,10.155 L64.155,10.155 Z" id="Shape"></path>
                                <path d="M69.6,10.335 C70.92,10.335 71.7,9.795 72.255,9.075 L71.505,8.385 C71.025,9.03 70.41,9.33 69.66,9.33 C68.13,9.33 67.155,8.13 67.155,6.525 C67.155,4.92 68.13,3.735 69.66,3.735 C70.41,3.735 71.025,4.005 71.505,4.665 L72.255,3.99 C71.7,3.27 70.92,2.73 69.6,2.73 C67.44,2.73 65.985,4.38 65.985,6.525 C65.985,8.67 67.44,10.335 69.6,10.335 Z" id="Path"></path>
                                <path d="M75.69,10.335 C76.335,10.335 76.74,10.14 77.025,9.87 L76.695,9.015 C76.545,9.18 76.26,9.33 75.93,9.33 C75.45,9.33 75.21,8.94 75.21,8.4 L75.21,3.9 L76.68,3.9 L76.68,2.91 L75.21,2.91 L75.21,0.93 L74.07,0.93 L74.07,2.91 L72.87,2.91 L72.87,3.9 L74.07,3.9 L74.07,8.64 C74.07,9.72 74.61,10.335 75.69,10.335 Z" id="Path"></path>
                                <path d="M84.27,10.155 L84.27,2.91 L83.145,2.91 L83.145,8.235 C82.725,8.82 81.885,9.33 81.015,9.33 C80.025,9.33 79.38,8.955 79.38,7.68 L79.38,2.91 L78.255,2.91 L78.255,8.025 C78.255,9.585 79.05,10.335 80.565,10.335 C81.645,10.335 82.59,9.765 83.145,9.135 L83.145,10.155 L84.27,10.155 Z" id="Path"></path>
                                <path d="M87.645,10.155 L87.645,5.025 C87.975,4.44 88.92,3.87 89.625,3.87 C89.79,3.87 89.925,3.885 90.06,3.9 L90.06,2.745 C89.07,2.745 88.23,3.315 87.645,4.065 L87.645,2.91 L86.52,2.91 L86.52,10.155 L87.645,10.155 Z" id="Path"></path>
                                <path d="M94.755,10.335 C95.925,10.335 96.9,9.93 97.635,9.21 L97.095,8.475 C96.51,9.075 95.685,9.405 94.845,9.405 C93.285,9.405 92.34,8.265 92.25,6.9 L98.1,6.9 L98.1,6.615 C98.1,4.44 96.81,2.73 94.62,2.73 C92.55,2.73 91.05,4.425 91.05,6.525 C91.05,8.79 92.595,10.335 94.755,10.335 Z M96.99,6.06 L92.235,6.06 C92.295,4.965 93.06,3.66 94.605,3.66 C96.255,3.66 96.975,4.995 96.99,6.06 Z" id="Shape"></path>
                                <path d="M102.225,10.335 C104.085,10.335 105.06,9.36 105.06,8.145 C105.06,5.325 100.575,6.36 100.575,4.785 C100.575,4.14 101.19,3.645 102.18,3.645 C103.125,3.645 103.905,4.035 104.34,4.56 L104.865,3.78 C104.295,3.195 103.425,2.73 102.18,2.73 C100.455,2.73 99.495,3.675 99.495,4.815 C99.495,7.5 103.98,6.42 103.98,8.175 C103.98,8.895 103.365,9.42 102.255,9.42 C101.265,9.42 100.35,8.94 99.87,8.385 L99.3,9.195 C100.035,9.96 101.025,10.335 102.225,10.335 Z" id="Path"></path>
                                <path d="M113.94,10.335 C116.145,10.335 117.525,8.625 117.525,6.525 C117.525,4.425 116.145,2.73 113.94,2.73 C111.735,2.73 110.355,4.425 110.355,6.525 C110.355,8.625 111.735,10.335 113.94,10.335 Z M113.94,9.33 C112.395,9.33 111.54,8.01 111.54,6.525 C111.54,5.055 112.395,3.735 113.94,3.735 C115.485,3.735 116.34,5.055 116.34,6.525 C116.34,8.01 115.485,9.33 113.94,9.33 Z" id="Shape"></path>
                                <path d="M120.795,10.155 L120.795,3.9 L122.265,3.9 L122.265,2.91 L120.795,2.91 L120.795,2.355 C120.795,1.425 121.2,0.93 121.95,0.93 C122.31,0.93 122.595,1.065 122.835,1.275 L123.3,0.555 C122.85,0.135 122.355,0 121.77,0 C120.495,0 119.67,0.87 119.67,2.355 L119.67,2.91 L118.47,2.91 L118.47,3.9 L119.67,3.9 L119.67,10.155 L120.795,10.155 Z" id="Path"></path>
                                <path d="M127.11,12.99 C127.305,13.05 127.68,13.095 127.92,13.095 C128.88,13.08 129.615,12.675 130.05,11.625 L133.68,2.91 L132.465,2.91 L130.05,8.85 L127.65,2.91 L126.42,2.91 L129.45,10.23 L128.97,11.325 C128.715,11.925 128.385,12.09 127.89,12.09 C127.71,12.09 127.44,12.045 127.275,11.97 L127.11,12.99 Z" id="Path"></path>
                                <path d="M138.015,10.335 C140.22,10.335 141.6,8.625 141.6,6.525 C141.6,4.425 140.22,2.73 138.015,2.73 C135.81,2.73 134.43,4.425 134.43,6.525 C134.43,8.625 135.81,10.335 138.015,10.335 Z M138.015,9.33 C136.47,9.33 135.615,8.01 135.615,6.525 C135.615,5.055 136.47,3.735 138.015,3.735 C139.56,3.735 140.415,5.055 140.415,6.525 C140.415,8.01 139.56,9.33 138.015,9.33 Z" id="Shape"></path>
                                <path d="M149.445,10.155 L149.445,2.91 L148.32,2.91 L148.32,8.235 C147.9,8.82 147.06,9.33 146.19,9.33 C145.2,9.33 144.555,8.955 144.555,7.68 L144.555,2.91 L143.43,2.91 L143.43,8.025 C143.43,9.585 144.225,10.335 145.74,10.335 C146.82,10.335 147.765,9.765 148.32,9.135 L148.32,10.155 L149.445,10.155 Z" id="Path"></path>
                                <path d="M152.82,10.155 L152.82,5.025 C153.15,4.44 154.095,3.87 154.8,3.87 C154.965,3.87 155.1,3.885 155.235,3.9 L155.235,2.745 C154.245,2.745 153.405,3.315 152.82,4.065 L152.82,2.91 L151.695,2.91 L151.695,10.155 L152.82,10.155 Z" id="Path"></path>
                                <path d="M6.015,28.155 L6.015,20.91 L4.89,20.91 L4.89,26.235 C4.47,26.82 3.63,27.33 2.76,27.33 C1.77,27.33 1.125,26.955 1.125,25.68 L1.125,20.91 L0,20.91 L0,26.025 C0,27.585 0.795,28.335 2.31,28.335 C3.39,28.335 4.335,27.765 4.89,27.135 L4.89,28.155 L6.015,28.155 Z" id="Path"></path>
                                <path d="M14.28,28.155 L14.28,23.07 C14.28,21.495 13.485,20.73 11.985,20.73 C10.89,20.73 9.9,21.345 9.39,21.96 L9.39,20.91 L8.265,20.91 L8.265,28.155 L9.39,28.155 L9.39,22.86 C9.825,22.275 10.65,21.735 11.535,21.735 C12.51,21.735 13.17,22.125 13.17,23.415 L13.17,28.155 L14.28,28.155 Z" id="Path"></path>
                                <polygon id="Path" points="23.955 28.155 26.265 20.91 25.08 20.91 23.31 26.685 21.42 20.91 20.445 20.91 18.54 26.685 16.77 20.91 15.6 20.91 17.91 28.155 19.035 28.155 20.925 22.335 22.815 28.155"></polygon>
                                <path d="M33.21,28.155 L33.21,23.175 C33.21,21.42 31.95,20.73 30.405,20.73 C29.22,20.73 28.29,21.12 27.51,21.93 L28.035,22.71 C28.68,22.005 29.385,21.705 30.255,21.705 C31.305,21.705 32.085,22.26 32.085,23.22 L32.085,24.525 C31.5,23.865 30.675,23.55 29.685,23.55 C28.455,23.55 27.165,24.3 27.165,25.935 C27.165,27.51 28.47,28.335 29.685,28.335 C30.66,28.335 31.5,27.99 32.085,27.33 L32.085,28.155 L33.21,28.155 Z M30.105,27.525 C29.04,27.525 28.305,26.865 28.305,25.935 C28.305,25.02 29.04,24.36 30.105,24.36 C30.885,24.36 31.65,24.66 32.085,25.245 L32.085,26.625 C31.65,27.225 30.885,27.525 30.105,27.525 Z" id="Shape"></path>
                                <path d="M41.49,28.155 L41.49,23.07 C41.49,21.495 40.695,20.73 39.195,20.73 C38.1,20.73 37.11,21.345 36.6,21.96 L36.6,20.91 L35.475,20.91 L35.475,28.155 L36.6,28.155 L36.6,22.86 C37.035,22.275 37.86,21.735 38.745,21.735 C39.72,21.735 40.38,22.125 40.38,23.415 L40.38,28.155 L41.49,28.155 Z" id="Path"></path>
                                <path d="M45.6,28.335 C46.245,28.335 46.65,28.14 46.935,27.87 L46.605,27.015 C46.455,27.18 46.17,27.33 45.84,27.33 C45.36,27.33 45.12,26.94 45.12,26.4 L45.12,21.9 L46.59,21.9 L46.59,20.91 L45.12,20.91 L45.12,18.93 L43.98,18.93 L43.98,20.91 L42.78,20.91 L42.78,21.9 L43.98,21.9 L43.98,26.64 C43.98,27.72 44.52,28.335 45.6,28.335 Z" id="Path"></path>
                                <path d="M51.45,28.335 C52.62,28.335 53.595,27.93 54.33,27.21 L53.79,26.475 C53.205,27.075 52.38,27.405 51.54,27.405 C49.98,27.405 49.035,26.265 48.945,24.9 L54.795,24.9 L54.795,24.615 C54.795,22.44 53.505,20.73 51.315,20.73 C49.245,20.73 47.745,22.425 47.745,24.525 C47.745,26.79 49.29,28.335 51.45,28.335 Z M53.685,24.06 L48.93,24.06 C48.99,22.965 49.755,21.66 51.3,21.66 C52.95,21.66 53.67,22.995 53.685,24.06 Z" id="Shape"></path>
                                <path d="M62.985,28.155 L62.985,18.15 L61.86,18.15 L61.86,22.005 C61.275,21.21 60.39,20.73 59.415,20.73 C57.525,20.73 56.19,22.215 56.19,24.54 C56.19,26.895 57.525,28.335 59.415,28.335 C60.435,28.335 61.32,27.81 61.86,27.075 L61.86,28.155 L62.985,28.155 Z M59.7,27.33 C58.23,27.33 57.36,26.145 57.36,24.54 C57.36,22.935 58.23,21.735 59.7,21.735 C60.585,21.735 61.47,22.275 61.86,22.905 L61.86,26.175 C61.47,26.805 60.585,27.33 59.7,27.33 Z" id="Shape"></path>
                                <path d="M69.69,19.875 C70.11,19.875 70.44,19.545 70.44,19.125 C70.44,18.705 70.11,18.36 69.69,18.36 C69.27,18.36 68.925,18.705 68.925,19.125 C68.925,19.545 69.27,19.875 69.69,19.875 Z M70.245,28.155 L70.245,20.91 L69.12,20.91 L69.12,28.155 L70.245,28.155 Z" id="Shape"></path>
                                <path d="M74.34,28.335 C74.985,28.335 75.39,28.14 75.675,27.87 L75.345,27.015 C75.195,27.18 74.91,27.33 74.58,27.33 C74.1,27.33 73.86,26.94 73.86,26.4 L73.86,21.9 L75.33,21.9 L75.33,20.91 L73.86,20.91 L73.86,18.93 L72.72,18.93 L72.72,20.91 L71.52,20.91 L71.52,21.9 L72.72,21.9 L72.72,26.64 C72.72,27.72 73.26,28.335 74.34,28.335 Z" id="Path"></path>
                                <path d="M80.19,28.335 C81.36,28.335 82.335,27.93 83.07,27.21 L82.53,26.475 C81.945,27.075 81.12,27.405 80.28,27.405 C78.72,27.405 77.775,26.265 77.685,24.9 L83.535,24.9 L83.535,24.615 C83.535,22.44 82.245,20.73 80.055,20.73 C77.985,20.73 76.485,22.425 76.485,24.525 C76.485,26.79 78.03,28.335 80.19,28.335 Z M82.425,24.06 L77.67,24.06 C77.73,22.965 78.495,21.66 80.04,21.66 C81.69,21.66 82.41,22.995 82.425,24.06 Z" id="Shape"></path>
                                <path d="M95.22,28.155 L95.22,22.92 C95.22,21.465 94.515,20.73 93.195,20.73 C92.145,20.73 91.17,21.42 90.765,22.08 C90.555,21.33 89.925,20.73 88.83,20.73 C87.75,20.73 86.79,21.495 86.475,21.96 L86.475,20.91 L85.35,20.91 L85.35,28.155 L86.475,28.155 L86.475,22.86 C86.865,22.275 87.645,21.735 88.38,21.735 C89.34,21.735 89.715,22.32 89.715,23.235 L89.715,28.155 L90.84,28.155 L90.84,22.845 C91.215,22.26 92.01,21.735 92.76,21.735 C93.705,21.735 94.095,22.32 94.095,23.235 L94.095,28.155 L95.22,28.155 Z" id="Path"></path>
                                <path d="M99.78,28.335 C101.64,28.335 102.615,27.36 102.615,26.145 C102.615,23.325 98.13,24.36 98.13,22.785 C98.13,22.14 98.745,21.645 99.735,21.645 C100.68,21.645 101.46,22.035 101.895,22.56 L102.42,21.78 C101.85,21.195 100.98,20.73 99.735,20.73 C98.01,20.73 97.05,21.675 97.05,22.815 C97.05,25.5 101.535,24.42 101.535,26.175 C101.535,26.895 100.92,27.42 99.81,27.42 C98.82,27.42 97.905,26.94 97.425,26.385 L96.855,27.195 C97.59,27.96 98.58,28.335 99.78,28.335 Z" id="Path"></path>
                                <path d="M109.77,28.155 L109.77,21.9 L111.24,21.9 L111.24,20.91 L109.77,20.91 L109.77,20.355 C109.77,19.425 110.175,18.93 110.925,18.93 C111.285,18.93 111.57,19.065 111.81,19.275 L112.275,18.555 C111.825,18.135 111.33,18 110.745,18 C109.47,18 108.645,18.87 108.645,20.355 L108.645,20.91 L107.445,20.91 L107.445,21.9 L108.645,21.9 L108.645,28.155 L109.77,28.155 Z" id="Path"></path>
                                <path d="M115.755,28.335 C117.96,28.335 119.34,26.625 119.34,24.525 C119.34,22.425 117.96,20.73 115.755,20.73 C113.55,20.73 112.17,22.425 112.17,24.525 C112.17,26.625 113.55,28.335 115.755,28.335 Z M115.755,27.33 C114.21,27.33 113.355,26.01 113.355,24.525 C113.355,23.055 114.21,21.735 115.755,21.735 C117.3,21.735 118.155,23.055 118.155,24.525 C118.155,26.01 117.3,27.33 115.755,27.33 Z" id="Shape"></path>
                                <path d="M122.295,28.155 L122.295,23.025 C122.625,22.44 123.57,21.87 124.275,21.87 C124.44,21.87 124.575,21.885 124.71,21.9 L124.71,20.745 C123.72,20.745 122.88,21.315 122.295,22.065 L122.295,20.91 L121.17,20.91 L121.17,28.155 L122.295,28.155 Z" id="Path"></path>
                                <path d="M135.66,28.155 L135.66,23.175 C135.66,21.42 134.4,20.73 132.855,20.73 C131.67,20.73 130.74,21.12 129.96,21.93 L130.485,22.71 C131.13,22.005 131.835,21.705 132.705,21.705 C133.755,21.705 134.535,22.26 134.535,23.22 L134.535,24.525 C133.95,23.865 133.125,23.55 132.135,23.55 C130.905,23.55 129.615,24.3 129.615,25.935 C129.615,27.51 130.92,28.335 132.135,28.335 C133.11,28.335 133.95,27.99 134.535,27.33 L134.535,28.155 L135.66,28.155 Z M132.555,27.525 C131.49,27.525 130.755,26.865 130.755,25.935 C130.755,25.02 131.49,24.36 132.555,24.36 C133.335,24.36 134.1,24.66 134.535,25.245 L134.535,26.625 C134.1,27.225 133.335,27.525 132.555,27.525 Z" id="Shape"></path>
                                <path d="M144.855,27.33 C143.4,27.33 142.53,26.13 142.53,24.525 C142.53,22.92 143.4,21.735 144.855,21.735 C145.74,21.735 146.625,22.26 147.015,22.89 L147.015,26.16 C146.625,26.79 145.74,27.33 144.855,27.33 Z M144.57,28.335 C145.56,28.335 146.415,27.855 147.015,27.06 L147.015,30.915 L148.14,30.915 L148.14,20.91 L147.015,20.91 L147.015,21.99 C146.49,21.255 145.59,20.73 144.57,20.73 C142.665,20.73 141.345,22.17 141.345,24.525 C141.345,26.865 142.665,28.335 144.57,28.335 Z" id="Shape"></path>
                                <path d="M156.405,28.155 L156.405,20.91 L155.28,20.91 L155.28,26.235 C154.86,26.82 154.02,27.33 153.15,27.33 C152.16,27.33 151.515,26.955 151.515,25.68 L151.515,20.91 L150.39,20.91 L150.39,26.025 C150.39,27.585 151.185,28.335 152.7,28.335 C153.78,28.335 154.725,27.765 155.28,27.135 L155.28,28.155 L156.405,28.155 Z" id="Path"></path>
                                <path d="M161.82,28.335 C164.025,28.335 165.405,26.625 165.405,24.525 C165.405,22.425 164.025,20.73 161.82,20.73 C159.615,20.73 158.235,22.425 158.235,24.525 C158.235,26.625 159.615,28.335 161.82,28.335 Z M161.82,27.33 C160.275,27.33 159.42,26.01 159.42,24.525 C159.42,23.055 160.275,21.735 161.82,21.735 C163.365,21.735 164.22,23.055 164.22,24.525 C164.22,26.01 163.365,27.33 161.82,27.33 Z" id="Shape"></path>
                                <path d="M169.08,28.335 C169.725,28.335 170.13,28.14 170.415,27.87 L170.085,27.015 C169.935,27.18 169.65,27.33 169.32,27.33 C168.84,27.33 168.6,26.94 168.6,26.4 L168.6,21.9 L170.07,21.9 L170.07,20.91 L168.6,20.91 L168.6,18.93 L167.46,18.93 L167.46,20.91 L166.26,20.91 L166.26,21.9 L167.46,21.9 L167.46,26.64 C167.46,27.72 168,28.335 169.08,28.335 Z" id="Path"></path>
                                <path d="M174.93,28.335 C176.1,28.335 177.075,27.93 177.81,27.21 L177.27,26.475 C176.685,27.075 175.86,27.405 175.02,27.405 C173.46,27.405 172.515,26.265 172.425,24.9 L178.275,24.9 L178.275,24.615 C178.275,22.44 176.985,20.73 174.795,20.73 C172.725,20.73 171.225,22.425 171.225,24.525 C171.225,26.79 172.77,28.335 174.93,28.335 Z M177.165,24.06 L172.41,24.06 C172.47,22.965 173.235,21.66 174.78,21.66 C176.43,21.66 177.15,22.995 177.165,24.06 Z" id="Shape"></path>
                            </g>
                            <g id="picture-upload" transform="translate(159.870588, 81.262588)" fill="#9013FE" fill-rule="nonzero">
                                <path d="M16.0965357,9.52209726 C16.5998549,9.52209726 17.0174118,9.92704866 17.0174118,10.4422981 C17.0174118,10.9453922 16.5998549,11.3624989 16.0965357,11.3624989 L15.3721702,11.3624989 C14.8564706,11.3624989 14.4512942,10.9453922 14.4512942,10.4422981 C14.4512942,9.92682356 14.8564706,9.52209726 15.3721702,9.52209726 L16.0965357,9.52209726 Z" id="Path"></path>
                                <path d="M10.1417922,9.55878826 C12.2658173,9.55878826 13.9970463,11.2643561 13.9970463,13.3872557 C13.9970463,15.5101553 12.2658173,17.2033428 10.1417922,17.2157232 C8.01776705,17.2033428 6.27415764,15.5101553 6.27415764,13.3872557 C6.27415764,11.2643561 8.01754196,9.55878826 10.1417922,9.55878826 Z M12.1552942,13.3872557 C12.1552942,12.29508 11.2589538,11.3994149 10.1417922,11.3994149 C9.01225016,11.3994149 8.1159098,12.29508 8.1159098,13.3872557 C8.1159098,14.467051 9.01225016,15.3750965 10.1417922,15.3750965 C11.2589538,15.3750965 12.1552942,14.467051 12.1552942,13.3872557 Z" id="Shape"></path>
                                <path d="M10.7923255,0.26989254 L13.2848361,2.76082745 C13.6530965,3.12886274 13.6530965,3.70556392 13.2848361,4.06144392 C12.928731,4.42947921 12.3394243,4.42947921 11.9833193,4.06144392 L11.0624432,3.14124313 L11.0624432,7.09238901 C11.0624432,7.59548313 10.6448863,8.0125898 10.1415671,8.0125898 C9.62586746,8.0125898 9.22069096,7.59548313 9.22069096,7.09238901 L9.22069096,3.14124313 L8.28765956,4.06144392 C7.93155451,4.42947921 7.35462823,4.42947921 6.98614274,4.06144392 C6.63003764,3.70556392 6.63003764,3.11670745 6.98614274,2.76082745 L9.49103376,0.26989254 C9.56464076,0.20844078 9.63847296,0.14721411 9.71207996,0.11029803 C9.78568706,0.06122666 9.87167446,0.03669098 9.95766196,0.01215529 C10.0188887,0.01238039 10.0803404,0 10.1417922,0 C10.203244,0 10.2644706,0.01238039 10.3259224,0.01238039 C10.4119098,0.03691607 10.4978973,0.06145176 10.5715043,0.11052313 C10.6451114,0.14721411 10.7187185,0.20866588 10.7923255,0.26989254 Z" id="Path"></path>
                                <path d="M17.0050314,20.2588236 L3.26594745,20.2588236 C1.46111137,20.2464432 0,18.7864573 0,16.994902 L0,9.43610976 C0,7.63239921 1.47326666,6.18434352 3.26594745,6.18434352 L5.85660078,6.18434352 C6.35992,6.18434352 6.77747686,6.5892949 6.77747686,7.10454431 C6.77747686,7.60763843 6.35992,8.02474509 5.85660078,8.02474509 L3.26594745,8.02474509 C2.48013019,8.02474509 1.84175215,8.66289806 1.84175215,9.43588466 L1.84175215,16.994902 C1.84175215,17.3753177 2.00134666,17.7311977 2.25930901,17.9889349 C2.52942666,18.2588275 2.87315137,18.418422 3.26617254,18.418422 L17.0052565,18.418422 C17.7786934,18.418422 18.4172965,17.7681138 18.4172965,16.9951271 L18.4172965,9.43610976 C18.4172965,8.65074276 17.7910738,8.02497019 17.0052565,8.02497019 L14.4022228,8.02497019 C13.8989036,8.02497019 13.4813467,7.60786352 13.4813467,7.10476941 C13.4813467,6.5892949 13.8989036,6.18456862 14.4022228,6.18456862 L17.0052565,6.18456862 C18.7977122,6.18434352 20.2588236,7.63239921 20.2588236,9.43610976 L20.2588236,16.994902 C20.2588236,18.7864573 18.8100926,20.2464432 17.0050314,20.2588236 Z" id="Path"></path>
                            </g>
                        </g>
                    </g>
                </g>
            </g>
        </g>
    </g>
</svg>