<svg xmlns="http://www.w3.org/2000/svg" xmlns:xlink="http://www.w3.org/1999/xlink" width="62" zoomAndPan="magnify" viewBox="0 0 46.5 11.25" height="15" preserveAspectRatio="xMidYMid meet" version="1.2"><defs><clipPath id="7d7a206776"><path d="M 33.6875 0 L 44.140625 0 L 44.140625 10.453125 L 33.6875 10.453125 Z M 33.6875 0 "/></clipPath><clipPath id="8d497e8416"><path d="M 38.914062 0 C 38.222656 0 37.554688 0.132812 36.914062 0.398438 C 36.273438 0.664062 35.710938 1.039062 35.21875 1.53125 C 34.730469 2.019531 34.351562 2.585938 34.085938 3.226562 C 33.820312 3.867188 33.6875 4.535156 33.6875 5.226562 C 33.6875 5.917969 33.820312 6.585938 34.085938 7.226562 C 34.351562 7.867188 34.730469 8.433594 35.21875 8.921875 C 35.710938 9.414062 36.273438 9.789062 36.914062 10.054688 C 37.554688 10.320312 38.222656 10.453125 38.914062 10.453125 C 39.609375 10.453125 40.273438 10.320312 40.914062 10.054688 C 41.554688 9.789062 42.121094 9.414062 42.609375 8.921875 C 43.101562 8.433594 43.476562 7.867188 43.742188 7.226562 C 44.007812 6.585938 44.140625 5.917969 44.140625 5.226562 C 44.140625 4.535156 44.007812 3.867188 43.742188 3.226562 C 43.476562 2.585938 43.101562 2.019531 42.609375 1.53125 C 42.121094 1.039062 41.554688 0.664062 40.914062 0.398438 C 40.273438 0.132812 39.609375 0 38.914062 0 Z M 38.914062 0 "/></clipPath><clipPath id="1cdebdf25f"><path d="M 0.6875 0 L 11.140625 0 L 11.140625 10.453125 L 0.6875 10.453125 Z M 0.6875 0 "/></clipPath><clipPath id="ef441ada30"><path d="M 5.914062 0 C 5.222656 0 4.554688 0.132812 3.914062 0.398438 C 3.273438 0.664062 2.710938 1.039062 2.21875 1.53125 C 1.730469 2.019531 1.351562 2.585938 1.085938 3.226562 C 0.820312 3.867188 0.6875 4.535156 0.6875 5.226562 C 0.6875 5.917969 0.820312 6.585938 1.085938 7.226562 C 1.351562 7.867188 1.730469 8.433594 2.21875 8.921875 C 2.710938 9.414062 3.273438 9.789062 3.914062 10.054688 C 4.554688 10.320312 5.222656 10.453125 5.914062 10.453125 C 6.609375 10.453125 7.273438 10.320312 7.914062 10.054688 C 8.554688 9.789062 9.121094 9.414062 9.609375 8.921875 C 10.101562 8.433594 10.476562 7.867188 10.742188 7.226562 C 11.007812 6.585938 11.140625 5.917969 11.140625 5.226562 C 11.140625 4.535156 11.007812 3.867188 10.742188 3.226562 C 10.476562 2.585938 10.101562 2.019531 9.609375 1.53125 C 9.121094 1.039062 8.554688 0.664062 7.914062 0.398438 C 7.273438 0.132812 6.609375 0 5.914062 0 Z M 5.914062 0 "/></clipPath><clipPath id="7d361f653d"><rect x="0" width="12" y="0" height="11"/></clipPath><clipPath id="764dc490f0"><path d="M 17.609375 0 L 28.0625 0 L 28.0625 10.453125 L 17.609375 10.453125 Z M 17.609375 0 "/></clipPath><clipPath id="bf6bfaae10"><path d="M 22.835938 0 C 22.144531 0 21.476562 0.132812 20.835938 0.398438 C 20.195312 0.664062 19.632812 1.039062 19.140625 1.53125 C 18.652344 2.019531 18.273438 2.585938 18.007812 3.226562 C 17.742188 3.867188 17.609375 4.535156 17.609375 5.226562 C 17.609375 5.917969 17.742188 6.585938 18.007812 7.226562 C 18.273438 7.867188 18.652344 8.433594 19.140625 8.921875 C 19.632812 9.414062 20.195312 9.789062 20.835938 10.054688 C 21.476562 10.320312 22.144531 10.453125 22.835938 10.453125 C 23.53125 10.453125 24.195312 10.320312 24.835938 10.054688 C 25.476562 9.789062 26.042969 9.414062 26.53125 8.921875 C 27.023438 8.433594 27.398438 7.867188 27.664062 7.226562 C 27.929688 6.585938 28.0625 5.917969 28.0625 5.226562 C 28.0625 4.535156 27.929688 3.867188 27.664062 3.226562 C 27.398438 2.585938 27.023438 2.019531 26.53125 1.53125 C 26.042969 1.039062 25.476562 0.664062 24.835938 0.398438 C 24.195312 0.132812 23.53125 0 22.835938 0 Z M 22.835938 0 "/></clipPath><clipPath id="2a9b88c9d4"><path d="M 0.609375 0 L 11.0625 0 L 11.0625 10.453125 L 0.609375 10.453125 Z M 0.609375 0 "/></clipPath><clipPath id="0d584e7736"><path d="M 5.835938 0 C 5.144531 0 4.476562 0.132812 3.835938 0.398438 C 3.195312 0.664062 2.632812 1.039062 2.140625 1.53125 C 1.652344 2.019531 1.273438 2.585938 1.007812 3.226562 C 0.742188 3.867188 0.609375 4.535156 0.609375 5.226562 C 0.609375 5.917969 0.742188 6.585938 1.007812 7.226562 C 1.273438 7.867188 1.652344 8.433594 2.140625 8.921875 C 2.632812 9.414062 3.195312 9.789062 3.835938 10.054688 C 4.476562 10.320312 5.144531 10.453125 5.835938 10.453125 C 6.53125 10.453125 7.195312 10.320312 7.835938 10.054688 C 8.476562 9.789062 9.042969 9.414062 9.53125 8.921875 C 10.023438 8.433594 10.398438 7.867188 10.664062 7.226562 C 10.929688 6.585938 11.0625 5.917969 11.0625 5.226562 C 11.0625 4.535156 10.929688 3.867188 10.664062 3.226562 C 10.398438 2.585938 10.023438 2.019531 9.53125 1.53125 C 9.042969 1.039062 8.476562 0.664062 7.835938 0.398438 C 7.195312 0.132812 6.53125 0 5.835938 0 Z M 5.835938 0 "/></clipPath><clipPath id="6330133bc1"><rect x="0" width="12" y="0" height="11"/></clipPath><clipPath id="e8180f51a3"><path d="M 1.21875 0 L 11.671875 0 L 11.671875 10.453125 L 1.21875 10.453125 Z M 1.21875 0 "/></clipPath><clipPath id="377067d4a2"><path d="M 6.445312 0 C 5.753906 0 5.085938 0.132812 4.445312 0.398438 C 3.804688 0.664062 3.238281 1.039062 2.75 1.53125 C 2.257812 2.019531 1.882812 2.585938 1.617188 3.226562 C 1.351562 3.867188 1.21875 4.535156 1.21875 5.226562 C 1.21875 5.917969 1.351562 6.585938 1.617188 7.226562 C 1.882812 7.867188 2.257812 8.433594 2.75 8.921875 C 3.238281 9.414062 3.804688 9.789062 4.445312 10.054688 C 5.085938 10.320312 5.753906 10.453125 6.445312 10.453125 C 7.136719 10.453125 7.804688 10.320312 8.445312 10.054688 C 9.085938 9.789062 9.652344 9.414062 10.140625 8.921875 C 10.632812 8.433594 11.007812 7.867188 11.273438 7.226562 C 11.539062 6.585938 11.671875 5.917969 11.671875 5.226562 C 11.671875 4.535156 11.539062 3.867188 11.273438 3.226562 C 11.007812 2.585938 10.632812 2.019531 10.140625 1.53125 C 9.652344 1.039062 9.085938 0.664062 8.445312 0.398438 C 7.804688 0.132812 7.136719 0 6.445312 0 Z M 6.445312 0 "/></clipPath><clipPath id="108e9ec0aa"><path d="M 0.21875 0 L 10.671875 0 L 10.671875 10.453125 L 0.21875 10.453125 Z M 0.21875 0 "/></clipPath><clipPath id="2affc60aab"><path d="M 5.445312 0 C 4.753906 0 4.085938 0.132812 3.445312 0.398438 C 2.804688 0.664062 2.238281 1.039062 1.75 1.53125 C 1.257812 2.019531 0.882812 2.585938 0.617188 3.226562 C 0.351562 3.867188 0.21875 4.535156 0.21875 5.226562 C 0.21875 5.917969 0.351562 6.585938 0.617188 7.226562 C 0.882812 7.867188 1.257812 8.433594 1.75 8.921875 C 2.238281 9.414062 2.804688 9.789062 3.445312 10.054688 C 4.085938 10.320312 4.753906 10.453125 5.445312 10.453125 C 6.136719 10.453125 6.804688 10.320312 7.445312 10.054688 C 8.085938 9.789062 8.652344 9.414062 9.140625 8.921875 C 9.632812 8.433594 10.007812 7.867188 10.273438 7.226562 C 10.539062 6.585938 10.671875 5.917969 10.671875 5.226562 C 10.671875 4.535156 10.539062 3.867188 10.273438 3.226562 C 10.007812 2.585938 9.632812 2.019531 9.140625 1.53125 C 8.652344 1.039062 8.085938 0.664062 7.445312 0.398438 C 6.804688 0.132812 6.136719 0 5.445312 0 Z M 5.445312 0 "/></clipPath><clipPath id="f76c510a8d"><rect x="0" width="11" y="0" height="11"/></clipPath></defs><g id="94bc36796a"><g clip-rule="nonzero" clip-path="url(#7d7a206776)"><g clip-rule="nonzero" clip-path="url(#8d497e8416)"><g transform="matrix(1,0,0,1,33,0.00000000000000031)"><g clip-path="url(#7d361f653d)"><g clip-rule="nonzero" clip-path="url(#1cdebdf25f)"><g clip-rule="nonzero" clip-path="url(#ef441ada30)"><path style=" stroke:none;fill-rule:nonzero;fill:#1976f2;fill-opacity:1;" d="M 0.6875 0 L 11.140625 0 L 11.140625 10.453125 L 0.6875 10.453125 Z M 0.6875 0 "/></g></g></g></g></g></g><g clip-rule="nonzero" clip-path="url(#764dc490f0)"><g clip-rule="nonzero" clip-path="url(#bf6bfaae10)"><g transform="matrix(1,0,0,1,17,0.00000000000000031)"><g clip-path="url(#6330133bc1)"><g clip-rule="nonzero" clip-path="url(#2a9b88c9d4)"><g clip-rule="nonzero" clip-path="url(#0d584e7736)"><path style=" stroke:none;fill-rule:nonzero;fill:#1976f2;fill-opacity:1;" d="M 0.609375 0 L 11.0625 0 L 11.0625 10.453125 L 0.609375 10.453125 Z M 0.609375 0 "/></g></g></g></g></g></g><g clip-rule="nonzero" clip-path="url(#e8180f51a3)"><g clip-rule="nonzero" clip-path="url(#377067d4a2)"><g transform="matrix(1,0,0,1,1,0.00000000000000031)"><g clip-path="url(#f76c510a8d)"><g clip-rule="nonzero" clip-path="url(#108e9ec0aa)"><g clip-rule="nonzero" clip-path="url(#2affc60aab)"><path style=" stroke:none;fill-rule:nonzero;fill:#1976f2;fill-opacity:1;" d="M 0.21875 0 L 10.671875 0 L 10.671875 10.453125 L 0.21875 10.453125 Z M 0.21875 0 "/></g></g></g></g></g></g></g></svg>