<svg xmlns="http://www.w3.org/2000/svg" xmlns:xlink="http://www.w3.org/1999/xlink" width="328" zoomAndPan="magnify" viewBox="0 0 246 85.499998" height="114" preserveAspectRatio="xMidYMid meet" version="1.2"><defs><clipPath id="83990288c2"><path d="M 0.714844 1.917969 L 237.382812 1.917969 L 237.382812 84.683594 L 0.714844 84.683594 Z M 0.714844 1.917969 "/></clipPath><clipPath id="dec6fe505a"><path d="M 0.714844 0.917969 L 237.382812 0.917969 L 237.382812 83.683594 L 0.714844 83.683594 Z M 0.714844 0.917969 "/></clipPath><clipPath id="202a29ccc7"><rect x="0" width="238" y="0" height="84"/></clipPath><clipPath id="5832cdc882"><path d="M 82.351562 53.488281 L 93.4375 53.488281 L 93.4375 64.574219 L 82.351562 64.574219 Z M 82.351562 53.488281 "/></clipPath><clipPath id="d3d03ddfab"><path d="M 87.894531 53.488281 C 87.160156 53.488281 86.453125 53.628906 85.773438 53.910156 C 85.09375 54.191406 84.496094 54.59375 83.976562 55.113281 C 83.457031 55.632812 83.054688 56.230469 82.773438 56.910156 C 82.492188 57.589844 82.351562 58.296875 82.351562 59.03125 C 82.351562 59.765625 82.492188 60.472656 82.773438 61.152344 C 83.054688 61.832031 83.457031 62.429688 83.976562 62.949219 C 84.496094 63.46875 85.09375 63.871094 85.773438 64.152344 C 86.453125 64.433594 87.160156 64.574219 87.894531 64.574219 C 88.628906 64.574219 89.335938 64.433594 90.015625 64.152344 C 90.695312 63.871094 91.292969 63.46875 91.8125 62.949219 C 92.332031 62.429688 92.734375 61.832031 93.015625 61.152344 C 93.296875 60.472656 93.4375 59.765625 93.4375 59.03125 C 93.4375 58.296875 93.296875 57.589844 93.015625 56.910156 C 92.734375 56.230469 92.332031 55.632812 91.8125 55.113281 C 91.292969 54.59375 90.695312 54.191406 90.015625 53.910156 C 89.335938 53.628906 88.628906 53.488281 87.894531 53.488281 Z M 87.894531 53.488281 "/></clipPath><clipPath id="0660ca354c"><path d="M 0.351562 0.488281 L 11.4375 0.488281 L 11.4375 11.574219 L 0.351562 11.574219 Z M 0.351562 0.488281 "/></clipPath><clipPath id="5507e6ef15"><path d="M 5.894531 0.488281 C 5.160156 0.488281 4.453125 0.628906 3.773438 0.910156 C 3.09375 1.191406 2.496094 1.59375 1.976562 2.113281 C 1.457031 2.632812 1.054688 3.230469 0.773438 3.910156 C 0.492188 4.589844 0.351562 5.296875 0.351562 6.03125 C 0.351562 6.765625 0.492188 7.472656 0.773438 8.152344 C 1.054688 8.832031 1.457031 9.429688 1.976562 9.949219 C 2.496094 10.46875 3.09375 10.871094 3.773438 11.152344 C 4.453125 11.433594 5.160156 11.574219 5.894531 11.574219 C 6.628906 11.574219 7.335938 11.433594 8.015625 11.152344 C 8.695312 10.871094 9.292969 10.46875 9.8125 9.949219 C 10.332031 9.429688 10.734375 8.832031 11.015625 8.152344 C 11.296875 7.472656 11.4375 6.765625 11.4375 6.03125 C 11.4375 5.296875 11.296875 4.589844 11.015625 3.910156 C 10.734375 3.230469 10.332031 2.632812 9.8125 2.113281 C 9.292969 1.59375 8.695312 1.191406 8.015625 0.910156 C 7.335938 0.628906 6.628906 0.488281 5.894531 0.488281 Z M 5.894531 0.488281 "/></clipPath><clipPath id="7bc9827a64"><rect x="0" width="12" y="0" height="12"/></clipPath><clipPath id="f9d5745236"><path d="M 49.417969 53.488281 L 60.503906 53.488281 L 60.503906 64.574219 L 49.417969 64.574219 Z M 49.417969 53.488281 "/></clipPath><clipPath id="92861dbd0d"><path d="M 54.960938 53.488281 C 54.226562 53.488281 53.519531 53.628906 52.839844 53.910156 C 52.160156 54.191406 51.5625 54.59375 51.042969 55.113281 C 50.523438 55.632812 50.121094 56.230469 49.839844 56.910156 C 49.558594 57.589844 49.417969 58.296875 49.417969 59.03125 C 49.417969 59.765625 49.558594 60.472656 49.839844 61.152344 C 50.121094 61.832031 50.523438 62.429688 51.042969 62.949219 C 51.5625 63.46875 52.160156 63.871094 52.839844 64.152344 C 53.519531 64.433594 54.226562 64.574219 54.960938 64.574219 C 55.695312 64.574219 56.402344 64.433594 57.082031 64.152344 C 57.761719 63.871094 58.359375 63.46875 58.878906 62.949219 C 59.402344 62.429688 59.800781 61.832031 60.082031 61.152344 C 60.363281 60.472656 60.503906 59.765625 60.503906 59.03125 C 60.503906 58.296875 60.363281 57.589844 60.082031 56.910156 C 59.800781 56.230469 59.402344 55.632812 58.878906 55.113281 C 58.359375 54.59375 57.761719 54.191406 57.082031 53.910156 C 56.402344 53.628906 55.695312 53.488281 54.960938 53.488281 Z M 54.960938 53.488281 "/></clipPath><clipPath id="851255e6b7"><path d="M 0.417969 0.488281 L 11.503906 0.488281 L 11.503906 11.574219 L 0.417969 11.574219 Z M 0.417969 0.488281 "/></clipPath><clipPath id="24b8bc23e2"><path d="M 5.960938 0.488281 C 5.226562 0.488281 4.519531 0.628906 3.839844 0.910156 C 3.160156 1.191406 2.5625 1.59375 2.042969 2.113281 C 1.523438 2.632812 1.121094 3.230469 0.839844 3.910156 C 0.558594 4.589844 0.417969 5.296875 0.417969 6.03125 C 0.417969 6.765625 0.558594 7.472656 0.839844 8.152344 C 1.121094 8.832031 1.523438 9.429688 2.042969 9.949219 C 2.5625 10.46875 3.160156 10.871094 3.839844 11.152344 C 4.519531 11.433594 5.226562 11.574219 5.960938 11.574219 C 6.695312 11.574219 7.402344 11.433594 8.082031 11.152344 C 8.761719 10.871094 9.359375 10.46875 9.878906 9.949219 C 10.402344 9.429688 10.800781 8.832031 11.082031 8.152344 C 11.363281 7.472656 11.503906 6.765625 11.503906 6.03125 C 11.503906 5.296875 11.363281 4.589844 11.082031 3.910156 C 10.800781 3.230469 10.402344 2.632812 9.878906 2.113281 C 9.359375 1.59375 8.761719 1.191406 8.082031 0.910156 C 7.402344 0.628906 6.695312 0.488281 5.960938 0.488281 Z M 5.960938 0.488281 "/></clipPath><clipPath id="657c1542d9"><rect x="0" width="12" y="0" height="12"/></clipPath><clipPath id="d1ae3ada26"><path d="M 16.488281 53.488281 L 27.570312 53.488281 L 27.570312 64.574219 L 16.488281 64.574219 Z M 16.488281 53.488281 "/></clipPath><clipPath id="3b68e8e37d"><path d="M 22.027344 53.488281 C 21.292969 53.488281 20.585938 53.628906 19.90625 53.910156 C 19.230469 54.191406 18.628906 54.59375 18.109375 55.113281 C 17.589844 55.632812 17.191406 56.230469 16.910156 56.910156 C 16.628906 57.589844 16.488281 58.296875 16.488281 59.03125 C 16.488281 59.765625 16.628906 60.472656 16.910156 61.152344 C 17.191406 61.832031 17.589844 62.429688 18.109375 62.949219 C 18.628906 63.46875 19.230469 63.871094 19.90625 64.152344 C 20.585938 64.433594 21.292969 64.574219 22.027344 64.574219 C 22.765625 64.574219 23.472656 64.433594 24.148438 64.152344 C 24.828125 63.871094 25.429688 63.46875 25.949219 62.949219 C 26.46875 62.429688 26.867188 61.832031 27.148438 61.152344 C 27.429688 60.472656 27.570312 59.765625 27.570312 59.03125 C 27.570312 58.296875 27.429688 57.589844 27.148438 56.910156 C 26.867188 56.230469 26.46875 55.632812 25.949219 55.113281 C 25.429688 54.59375 24.828125 54.191406 24.148438 53.910156 C 23.472656 53.628906 22.765625 53.488281 22.027344 53.488281 Z M 22.027344 53.488281 "/></clipPath><clipPath id="ef34b56822"><path d="M 0.488281 0.488281 L 11.570312 0.488281 L 11.570312 11.574219 L 0.488281 11.574219 Z M 0.488281 0.488281 "/></clipPath><clipPath id="eee2a2fa64"><path d="M 6.027344 0.488281 C 5.292969 0.488281 4.585938 0.628906 3.90625 0.910156 C 3.230469 1.191406 2.628906 1.59375 2.109375 2.113281 C 1.589844 2.632812 1.191406 3.230469 0.910156 3.910156 C 0.628906 4.589844 0.488281 5.296875 0.488281 6.03125 C 0.488281 6.765625 0.628906 7.472656 0.910156 8.152344 C 1.191406 8.832031 1.589844 9.429688 2.109375 9.949219 C 2.628906 10.46875 3.230469 10.871094 3.90625 11.152344 C 4.585938 11.433594 5.292969 11.574219 6.027344 11.574219 C 6.765625 11.574219 7.472656 11.433594 8.148438 11.152344 C 8.828125 10.871094 9.429688 10.46875 9.949219 9.949219 C 10.46875 9.429688 10.867188 8.832031 11.148438 8.152344 C 11.429688 7.472656 11.570312 6.765625 11.570312 6.03125 C 11.570312 5.296875 11.429688 4.589844 11.148438 3.910156 C 10.867188 3.230469 10.46875 2.632812 9.949219 2.113281 C 9.429688 1.59375 8.828125 1.191406 8.148438 0.910156 C 7.472656 0.628906 6.765625 0.488281 6.027344 0.488281 Z M 6.027344 0.488281 "/></clipPath><clipPath id="cfa263d54f"><rect x="0" width="12" y="0" height="12"/></clipPath></defs><g id="5c0f04f885"><g clip-rule="nonzero" clip-path="url(#83990288c2)"><g transform="matrix(1,0,0,1,0.000000000000000111,1)"><g clip-path="url(#202a29ccc7)"><g clip-rule="nonzero" clip-path="url(#dec6fe505a)"><path style=" stroke:none;fill-rule:nonzero;fill:#ffffff;fill-opacity:1;" d="M 0.714844 0.917969 L 237.375 0.917969 L 237.375 83.683594 L 0.714844 83.683594 Z M 0.714844 0.917969 "/></g></g></g></g><g clip-rule="nonzero" clip-path="url(#5832cdc882)"><g clip-rule="nonzero" clip-path="url(#d3d03ddfab)"><g transform="matrix(1,0,0,1,82,53)"><g clip-path="url(#7bc9827a64)"><g clip-rule="nonzero" clip-path="url(#0660ca354c)"><g clip-rule="nonzero" clip-path="url(#5507e6ef15)"><path style=" stroke:none;fill-rule:nonzero;fill:#1976f2;fill-opacity:1;" d="M 0.351562 0.488281 L 11.4375 0.488281 L 11.4375 11.574219 L 0.351562 11.574219 Z M 0.351562 0.488281 "/></g></g></g></g></g></g><g clip-rule="nonzero" clip-path="url(#f9d5745236)"><g clip-rule="nonzero" clip-path="url(#92861dbd0d)"><g transform="matrix(1,0,0,1,49,53)"><g clip-path="url(#657c1542d9)"><g clip-rule="nonzero" clip-path="url(#851255e6b7)"><g clip-rule="nonzero" clip-path="url(#24b8bc23e2)"><path style=" stroke:none;fill-rule:nonzero;fill:#1976f2;fill-opacity:1;" d="M 0.417969 0.488281 L 11.503906 0.488281 L 11.503906 11.574219 L 0.417969 11.574219 Z M 0.417969 0.488281 "/></g></g></g></g></g></g><g clip-rule="nonzero" clip-path="url(#d1ae3ada26)"><g clip-rule="nonzero" clip-path="url(#3b68e8e37d)"><g transform="matrix(1,0,0,1,16,53)"><g clip-path="url(#cfa263d54f)"><g clip-rule="nonzero" clip-path="url(#ef34b56822)"><g clip-rule="nonzero" clip-path="url(#eee2a2fa64)"><path style=" stroke:none;fill-rule:nonzero;fill:#1976f2;fill-opacity:1;" d="M 0.488281 0.488281 L 11.570312 0.488281 L 11.570312 11.574219 L 0.488281 11.574219 Z M 0.488281 0.488281 "/></g></g></g></g></g></g><g style="fill:#000000;fill-opacity:1;"><g transform="translate(11.911134, 41.045781)"><path style="stroke:none" d="M 10.75 -23.546875 C 13.78125 -23.546875 16.507812 -22.742188 18.9375 -21.140625 L 17.296875 -17.65625 C 14.910156 -19.101562 12.628906 -19.828125 10.453125 -19.828125 C 9.273438 -19.828125 8.34375 -19.613281 7.65625 -19.1875 C 6.976562 -18.769531 6.640625 -18.171875 6.640625 -17.390625 C 6.640625 -16.617188 6.953125 -15.957031 7.578125 -15.40625 C 8.203125 -14.863281 8.976562 -14.460938 9.90625 -14.203125 C 10.84375 -13.953125 11.859375 -13.628906 12.953125 -13.234375 C 14.046875 -12.847656 15.054688 -12.4375 15.984375 -12 C 16.921875 -11.570312 17.695312 -10.894531 18.3125 -9.96875 C 18.925781 -9.039062 19.234375 -7.921875 19.234375 -6.609375 C 19.234375 -4.566406 18.414062 -2.929688 16.78125 -1.703125 C 15.144531 -0.472656 13.023438 0.140625 10.421875 0.140625 C 8.640625 0.140625 6.910156 -0.191406 5.234375 -0.859375 C 3.566406 -1.535156 2.113281 -2.441406 0.875 -3.578125 L 2.578125 -6.984375 C 3.753906 -5.890625 5.046875 -5.046875 6.453125 -4.453125 C 7.867188 -3.867188 9.210938 -3.578125 10.484375 -3.578125 C 11.867188 -3.578125 12.941406 -3.828125 13.703125 -4.328125 C 14.472656 -4.828125 14.859375 -5.519531 14.859375 -6.40625 C 14.859375 -7.207031 14.546875 -7.878906 13.921875 -8.421875 C 13.296875 -8.972656 12.515625 -9.375 11.578125 -9.625 C 10.648438 -9.882812 9.640625 -10.195312 8.546875 -10.5625 C 7.453125 -10.9375 6.4375 -11.328125 5.5 -11.734375 C 4.570312 -12.148438 3.796875 -12.8125 3.171875 -13.71875 C 2.546875 -14.632812 2.234375 -15.738281 2.234375 -17.03125 C 2.234375 -19.007812 3.007812 -20.585938 4.5625 -21.765625 C 6.125 -22.953125 8.1875 -23.546875 10.75 -23.546875 Z M 10.75 -23.546875 "/></g></g><g style="fill:#000000;fill-opacity:1;"><g transform="translate(43.569581, 41.045781)"><path style="stroke:none" d="M 19.765625 -19.828125 L 7.015625 -19.828125 L 7.015625 -13.515625 L 18.4375 -13.515625 L 18.4375 -9.984375 L 7.015625 -9.984375 L 7.015625 -3.546875 L 20.171875 -3.546875 L 20.171875 0 L 3.078125 0 L 3.078125 -23.375 L 19.765625 -23.375 Z M 19.765625 -19.828125 "/></g></g><g style="fill:#000000;fill-opacity:1;"><g transform="translate(76.363314, 41.045781)"><path style="stroke:none" d="M 17.890625 0 L 13.625 -7.078125 C 13.40625 -7.054688 13.050781 -7.046875 12.5625 -7.046875 L 7.015625 -7.046875 L 7.015625 0 L 3.078125 0 L 3.078125 -23.375 L 12.5625 -23.375 C 15.539062 -23.375 17.851562 -22.675781 19.5 -21.28125 C 21.144531 -19.894531 21.96875 -17.929688 21.96875 -15.390625 C 21.96875 -13.523438 21.550781 -11.945312 20.71875 -10.65625 C 19.882812 -9.363281 18.6875 -8.414062 17.125 -7.8125 L 22.375 0 Z M 7.015625 -10.578125 L 12.5625 -10.578125 C 16.34375 -10.578125 18.234375 -12.148438 18.234375 -15.296875 C 18.234375 -18.316406 16.34375 -19.828125 12.5625 -19.828125 L 7.015625 -19.828125 Z M 7.015625 -10.578125 "/></g></g><g style="fill:#000000;fill-opacity:1;"><g transform="translate(111.127037, 41.045781)"><path style="stroke:none" d="M 13.484375 0 L 9.421875 0 L 0.09375 -23.375 L 4.34375 -23.375 L 11.546875 -4.375 L 18.828125 -23.375 L 22.9375 -23.375 Z M 13.484375 0 "/></g></g><g style="fill:#000000;fill-opacity:1;"><g transform="translate(145.056046, 41.045781)"><path style="stroke:none" d="M 7.015625 0 L 3.078125 0 L 3.078125 -23.375 L 7.015625 -23.375 Z M 7.015625 0 "/></g></g><g style="fill:#000000;fill-opacity:1;"><g transform="translate(166.029488, 41.045781)"><path style="stroke:none" d="M 13.421875 -23.46875 C 15.066406 -23.46875 16.675781 -23.148438 18.25 -22.515625 C 19.820312 -21.878906 21.175781 -21 22.3125 -19.875 L 20 -17 C 19.15625 -17.90625 18.15625 -18.625 17 -19.15625 C 15.84375 -19.695312 14.671875 -19.96875 13.484375 -19.96875 C 11.148438 -19.96875 9.175781 -19.171875 7.5625 -17.578125 C 5.945312 -15.984375 5.140625 -14.039062 5.140625 -11.75 C 5.140625 -9.4375 5.945312 -7.484375 7.5625 -5.890625 C 9.175781 -4.296875 11.148438 -3.5 13.484375 -3.5 C 15.910156 -3.5 18.082031 -4.425781 20 -6.28125 L 22.34375 -3.671875 C 21.132812 -2.492188 19.726562 -1.554688 18.125 -0.859375 C 16.53125 -0.171875 14.921875 0.171875 13.296875 0.171875 C 9.859375 0.171875 6.972656 -0.96875 4.640625 -3.25 C 2.304688 -5.53125 1.140625 -8.351562 1.140625 -11.71875 C 1.140625 -15.03125 2.320312 -17.816406 4.6875 -20.078125 C 7.0625 -22.335938 9.972656 -23.46875 13.421875 -23.46875 Z M 13.421875 -23.46875 "/></g></g><g style="fill:#000000;fill-opacity:1;"><g transform="translate(200.192237, 41.045781)"><path style="stroke:none" d="M 19.765625 -19.828125 L 7.015625 -19.828125 L 7.015625 -13.515625 L 18.4375 -13.515625 L 18.4375 -9.984375 L 7.015625 -9.984375 L 7.015625 -3.546875 L 20.171875 -3.546875 L 20.171875 0 L 3.078125 0 L 3.078125 -23.375 L 19.765625 -23.375 Z M 19.765625 -19.828125 "/></g></g><g style="fill:#000000;fill-opacity:1;"><g transform="translate(114.921706, 65.072139)"><path style="stroke:none" d="M 11.484375 -12.15625 L 4.296875 -12.15625 L 4.296875 -8.03125 L 10.8125 -8.03125 L 10.8125 -5.875 L 4.296875 -5.875 L 4.296875 0 L 1.890625 0 L 1.890625 -14.328125 L 11.5 -14.328125 Z M 11.484375 -12.15625 "/></g></g><g style="fill:#000000;fill-opacity:1;"><g transform="translate(146.581936, 65.072139)"><path style="stroke:none" d="M 4.296875 0 L 1.890625 0 L 1.890625 -14.328125 L 4.296875 -14.328125 Z M 4.296875 0 "/></g></g><g style="fill:#000000;fill-opacity:1;"><g transform="translate(199.05327, 65.072139)"><path style="stroke:none" d="M 16.625 0 L 14.140625 0 L 10.75 -11.171875 L 7.3125 0 L 4.8125 0 L 0.0625 -14.328125 L 2.65625 -14.328125 L 6.140625 -2.6875 L 9.59375 -14.3125 L 11.96875 -14.328125 L 15.453125 -2.6875 L 18.90625 -14.328125 L 21.40625 -14.328125 Z M 16.625 0 "/></g></g><g style="fill:#000000;fill-opacity:1;"><g transform="translate(170.898274, 65.072139)"><path style="stroke:none" d="M 2.890625 -12.3125 C 4.347656 -13.695312 6.144531 -14.390625 8.28125 -14.390625 C 10.425781 -14.390625 12.226562 -13.695312 13.6875 -12.3125 C 15.15625 -10.925781 15.890625 -9.207031 15.890625 -7.15625 C 15.890625 -5.113281 15.15625 -3.390625 13.6875 -1.984375 C 12.226562 -0.585938 10.425781 0.109375 8.28125 0.109375 C 6.144531 0.109375 4.347656 -0.585938 2.890625 -1.984375 C 1.429688 -3.390625 0.703125 -5.113281 0.703125 -7.15625 C 0.703125 -9.207031 1.429688 -10.925781 2.890625 -12.3125 Z M 8.3125 -12.21875 C 6.894531 -12.21875 5.679688 -11.726562 4.671875 -10.75 C 3.660156 -9.78125 3.15625 -8.582031 3.15625 -7.15625 C 3.15625 -5.738281 3.660156 -4.535156 4.671875 -3.546875 C 5.691406 -2.554688 6.90625 -2.0625 8.3125 -2.0625 C 9.71875 -2.0625 10.914062 -2.554688 11.90625 -3.546875 C 12.90625 -4.535156 13.40625 -5.738281 13.40625 -7.15625 C 13.40625 -8.582031 12.90625 -9.78125 11.90625 -10.75 C 10.914062 -11.726562 9.71875 -12.21875 8.3125 -12.21875 Z M 8.3125 -12.21875 "/></g></g></g></svg>